<svg xmlns="http://www.w3.org/2000/svg" xmlns:xlink="http://www.w3.org/1999/xlink" width="1024" zoomAndPan="magnify" viewBox="0 0 768 767.999994" height="1024" preserveAspectRatio="xMidYMid meet" version="1.0"><defs><clipPath id="61fc3d4209"><path d="M 149.648438 149.371094 L 213.601562 149.371094 L 213.601562 213.578125 L 149.648438 213.578125 Z M 149.648438 149.371094 " clip-rule="nonzero"/></clipPath><clipPath id="e12502c9ca"><path d="M 205.855469 213.371094 L 157.148438 213.371094 C 155.15625 213.371094 153.25 212.582031 151.84375 211.175781 C 150.4375 209.769531 149.648438 207.859375 149.648438 205.871094 L 149.648438 157.121094 C 149.648438 155.132812 150.4375 153.222656 151.84375 151.816406 C 153.25 150.410156 155.15625 149.621094 157.148438 149.621094 L 205.855469 149.621094 C 207.84375 149.621094 209.75 150.410156 211.15625 151.816406 C 212.5625 153.222656 213.355469 155.132812 213.355469 157.121094 L 213.355469 205.871094 C 213.355469 207.859375 212.5625 209.769531 211.15625 211.175781 C 209.75 212.582031 207.84375 213.371094 205.855469 213.371094 Z M 205.855469 213.371094 " clip-rule="nonzero"/></clipPath><clipPath id="dba8248cd4"><path d="M 0.648438 0.519531 L 64.359375 0.519531 L 64.359375 64.578125 L 0.648438 64.578125 Z M 0.648438 0.519531 " clip-rule="nonzero"/></clipPath><clipPath id="f9d63a6c38"><path d="M 56.855469 64.371094 L 8.148438 64.371094 C 6.15625 64.371094 4.25 63.582031 2.84375 62.175781 C 1.4375 60.769531 0.648438 58.859375 0.648438 56.871094 L 0.648438 8.121094 C 0.648438 6.132812 1.4375 4.222656 2.84375 2.816406 C 4.25 1.410156 6.15625 0.621094 8.148438 0.621094 L 56.855469 0.621094 C 58.84375 0.621094 60.75 1.410156 62.15625 2.816406 C 63.5625 4.222656 64.355469 6.132812 64.355469 8.121094 L 64.355469 56.871094 C 64.355469 58.859375 63.5625 60.769531 62.15625 62.175781 C 60.75 63.582031 58.84375 64.371094 56.855469 64.371094 Z M 56.855469 64.371094 " clip-rule="nonzero"/></clipPath><clipPath id="c35bfca133"><rect x="0" width="65" y="0" height="65"/></clipPath><clipPath id="dba2f44dfc"><path d="M 149.605469 149.621094 L 213.332031 149.621094 L 213.332031 213.371094 L 149.605469 213.371094 Z M 149.605469 149.621094 " clip-rule="nonzero"/></clipPath><clipPath id="f62e92d067"><path d="M 205.832031 213.371094 L 157.125 213.371094 C 155.136719 213.371094 153.230469 212.582031 151.820312 211.175781 C 150.414062 209.769531 149.625 207.859375 149.625 205.871094 L 149.625 157.121094 C 149.625 155.132812 150.414062 153.222656 151.820312 151.816406 C 153.230469 150.410156 155.136719 149.621094 157.125 149.621094 L 205.832031 149.621094 C 207.820312 149.621094 209.730469 150.410156 211.136719 151.816406 C 212.542969 153.222656 213.332031 155.132812 213.332031 157.121094 L 213.332031 205.871094 C 213.332031 207.859375 212.542969 209.769531 211.136719 211.175781 C 209.730469 212.582031 207.820312 213.371094 205.832031 213.371094 Z M 205.832031 213.371094 " clip-rule="nonzero"/></clipPath><clipPath id="dd4a8f6228"><path d="M 149.648438 217 L 213.601562 217 L 213.601562 281 L 149.648438 281 Z M 149.648438 217 " clip-rule="nonzero"/></clipPath><clipPath id="ae437c809c"><path d="M 205.855469 280.871094 L 157.148438 280.871094 C 155.15625 280.871094 153.25 280.082031 151.84375 278.675781 C 150.4375 277.269531 149.648438 275.359375 149.648438 273.371094 L 149.648438 224.621094 C 149.648438 222.632812 150.4375 220.722656 151.84375 219.316406 C 153.25 217.910156 155.15625 217.121094 157.148438 217.121094 L 205.855469 217.121094 C 207.84375 217.121094 209.75 217.910156 211.15625 219.316406 C 212.5625 220.722656 213.355469 222.632812 213.355469 224.621094 L 213.355469 273.371094 C 213.355469 275.359375 212.5625 277.269531 211.15625 278.675781 C 209.75 280.082031 207.84375 280.871094 205.855469 280.871094 Z M 205.855469 280.871094 " clip-rule="nonzero"/></clipPath><clipPath id="4ee84e3636"><path d="M 0.648438 0 L 64.359375 0 L 64.359375 64 L 0.648438 64 Z M 0.648438 0 " clip-rule="nonzero"/></clipPath><clipPath id="c7ebdec87c"><path d="M 56.855469 63.871094 L 8.148438 63.871094 C 6.15625 63.871094 4.25 63.082031 2.84375 61.675781 C 1.4375 60.269531 0.648438 58.359375 0.648438 56.371094 L 0.648438 7.621094 C 0.648438 5.632812 1.4375 3.722656 2.84375 2.316406 C 4.25 0.910156 6.15625 0.121094 8.148438 0.121094 L 56.855469 0.121094 C 58.84375 0.121094 60.75 0.910156 62.15625 2.316406 C 63.5625 3.722656 64.355469 5.632812 64.355469 7.621094 L 64.355469 56.371094 C 64.355469 58.359375 63.5625 60.269531 62.15625 61.675781 C 60.75 63.082031 58.84375 63.871094 56.855469 63.871094 Z M 56.855469 63.871094 " clip-rule="nonzero"/></clipPath><clipPath id="6e660e9c53"><rect x="0" width="65" y="0" height="64"/></clipPath><clipPath id="c45cce6b6a"><path d="M 149.605469 217.121094 L 213.332031 217.121094 L 213.332031 280.871094 L 149.605469 280.871094 Z M 149.605469 217.121094 " clip-rule="nonzero"/></clipPath><clipPath id="2685c2cc02"><path d="M 205.832031 280.871094 L 157.125 280.871094 C 155.136719 280.871094 153.230469 280.082031 151.820312 278.675781 C 150.414062 277.269531 149.625 275.359375 149.625 273.371094 L 149.625 224.621094 C 149.625 222.632812 150.414062 220.722656 151.820312 219.316406 C 153.230469 217.910156 155.136719 217.121094 157.125 217.121094 L 205.832031 217.121094 C 207.820312 217.121094 209.730469 217.910156 211.136719 219.316406 C 212.542969 220.722656 213.332031 222.632812 213.332031 224.621094 L 213.332031 273.371094 C 213.332031 275.359375 212.542969 277.269531 211.136719 278.675781 C 209.730469 280.082031 207.820312 280.871094 205.832031 280.871094 Z M 205.832031 280.871094 " clip-rule="nonzero"/></clipPath><clipPath id="67000c150b"><path d="M 149.648438 284.371094 L 213.601562 284.371094 L 213.601562 348.578125 L 149.648438 348.578125 Z M 149.648438 284.371094 " clip-rule="nonzero"/></clipPath><clipPath id="4790faff7d"><path d="M 205.855469 348.371094 L 157.148438 348.371094 C 155.15625 348.371094 153.25 347.582031 151.84375 346.175781 C 150.4375 344.769531 149.648438 342.859375 149.648438 340.871094 L 149.648438 292.121094 C 149.648438 290.132812 150.4375 288.222656 151.84375 286.816406 C 153.25 285.410156 155.15625 284.621094 157.148438 284.621094 L 205.855469 284.621094 C 207.84375 284.621094 209.75 285.410156 211.15625 286.816406 C 212.5625 288.222656 213.355469 290.132812 213.355469 292.121094 L 213.355469 340.871094 C 213.355469 342.859375 212.5625 344.769531 211.15625 346.175781 C 209.75 347.582031 207.84375 348.371094 205.855469 348.371094 Z M 205.855469 348.371094 " clip-rule="nonzero"/></clipPath><clipPath id="06e77adb46"><path d="M 0.648438 0.398438 L 64.359375 0.398438 L 64.359375 64.480469 L 0.648438 64.480469 Z M 0.648438 0.398438 " clip-rule="nonzero"/></clipPath><clipPath id="0070599b02"><path d="M 56.855469 64.371094 L 8.148438 64.371094 C 6.15625 64.371094 4.25 63.582031 2.84375 62.175781 C 1.4375 60.769531 0.648438 58.859375 0.648438 56.871094 L 0.648438 8.121094 C 0.648438 6.132812 1.4375 4.222656 2.84375 2.816406 C 4.25 1.410156 6.15625 0.621094 8.148438 0.621094 L 56.855469 0.621094 C 58.84375 0.621094 60.75 1.410156 62.15625 2.816406 C 63.5625 4.222656 64.355469 6.132812 64.355469 8.121094 L 64.355469 56.871094 C 64.355469 58.859375 63.5625 60.769531 62.15625 62.175781 C 60.75 63.582031 58.84375 64.371094 56.855469 64.371094 Z M 56.855469 64.371094 " clip-rule="nonzero"/></clipPath><clipPath id="34cf7a6ec5"><rect x="0" width="65" y="0" height="65"/></clipPath><clipPath id="a4f5ea05d0"><path d="M 149.605469 284.621094 L 213.332031 284.621094 L 213.332031 348.371094 L 149.605469 348.371094 Z M 149.605469 284.621094 " clip-rule="nonzero"/></clipPath><clipPath id="efd0610ede"><path d="M 205.832031 348.371094 L 157.125 348.371094 C 155.136719 348.371094 153.230469 347.582031 151.820312 346.175781 C 150.414062 344.769531 149.625 342.859375 149.625 340.871094 L 149.625 292.121094 C 149.625 290.132812 150.414062 288.222656 151.820312 286.816406 C 153.230469 285.410156 155.136719 284.621094 157.125 284.621094 L 205.832031 284.621094 C 207.820312 284.621094 209.730469 285.410156 211.136719 286.816406 C 212.542969 288.222656 213.332031 290.132812 213.332031 292.121094 L 213.332031 340.871094 C 213.332031 342.859375 212.542969 344.769531 211.136719 346.175781 C 209.730469 347.582031 207.820312 348.371094 205.832031 348.371094 Z M 205.832031 348.371094 " clip-rule="nonzero"/></clipPath><clipPath id="3f3ef4581e"><path d="M 149.648438 352 L 213.601562 352 L 213.601562 416 L 149.648438 416 Z M 149.648438 352 " clip-rule="nonzero"/></clipPath><clipPath id="e75ad4a258"><path d="M 205.855469 415.871094 L 157.148438 415.871094 C 155.15625 415.871094 153.25 415.082031 151.84375 413.675781 C 150.4375 412.269531 149.648438 410.359375 149.648438 408.371094 L 149.648438 359.621094 C 149.648438 357.632812 150.4375 355.722656 151.84375 354.316406 C 153.25 352.910156 155.15625 352.121094 157.148438 352.121094 L 205.855469 352.121094 C 207.84375 352.121094 209.75 352.910156 211.15625 354.316406 C 212.5625 355.722656 213.355469 357.632812 213.355469 359.621094 L 213.355469 408.371094 C 213.355469 410.359375 212.5625 412.269531 211.15625 413.675781 C 209.75 415.082031 207.84375 415.871094 205.855469 415.871094 Z M 205.855469 415.871094 " clip-rule="nonzero"/></clipPath><clipPath id="a5d9ec2bb5"><path d="M 0.648438 0.078125 L 64.359375 0.078125 L 64.359375 63.921875 L 0.648438 63.921875 Z M 0.648438 0.078125 " clip-rule="nonzero"/></clipPath><clipPath id="5bb40e2836"><path d="M 56.855469 63.871094 L 8.148438 63.871094 C 6.15625 63.871094 4.25 63.082031 2.84375 61.675781 C 1.4375 60.269531 0.648438 58.359375 0.648438 56.371094 L 0.648438 7.621094 C 0.648438 5.632812 1.4375 3.722656 2.84375 2.316406 C 4.25 0.910156 6.15625 0.121094 8.148438 0.121094 L 56.855469 0.121094 C 58.84375 0.121094 60.75 0.910156 62.15625 2.316406 C 63.5625 3.722656 64.355469 5.632812 64.355469 7.621094 L 64.355469 56.371094 C 64.355469 58.359375 63.5625 60.269531 62.15625 61.675781 C 60.75 63.082031 58.84375 63.871094 56.855469 63.871094 Z M 56.855469 63.871094 " clip-rule="nonzero"/></clipPath><clipPath id="c7153a6861"><rect x="0" width="65" y="0" height="64"/></clipPath><clipPath id="35eeb9f72f"><path d="M 149.605469 352.121094 L 213.332031 352.121094 L 213.332031 415.871094 L 149.605469 415.871094 Z M 149.605469 352.121094 " clip-rule="nonzero"/></clipPath><clipPath id="7cfcaa0fac"><path d="M 205.832031 415.871094 L 157.125 415.871094 C 155.136719 415.871094 153.230469 415.082031 151.820312 413.675781 C 150.414062 412.269531 149.625 410.359375 149.625 408.371094 L 149.625 359.621094 C 149.625 357.632812 150.414062 355.722656 151.820312 354.316406 C 153.230469 352.910156 155.136719 352.121094 157.125 352.121094 L 205.832031 352.121094 C 207.820312 352.121094 209.730469 352.910156 211.136719 354.316406 C 212.542969 355.722656 213.332031 357.632812 213.332031 359.621094 L 213.332031 408.371094 C 213.332031 410.359375 212.542969 412.269531 211.136719 413.675781 C 209.730469 415.082031 207.820312 415.871094 205.832031 415.871094 Z M 205.832031 415.871094 " clip-rule="nonzero"/></clipPath><clipPath id="724697762c"><path d="M 149.648438 419.371094 L 213.601562 419.371094 L 213.601562 483.578125 L 149.648438 483.578125 Z M 149.648438 419.371094 " clip-rule="nonzero"/></clipPath><clipPath id="e947a1c481"><path d="M 205.855469 483.371094 L 157.148438 483.371094 C 155.15625 483.371094 153.25 482.582031 151.84375 481.175781 C 150.4375 479.769531 149.648438 477.859375 149.648438 475.871094 L 149.648438 427.121094 C 149.648438 425.132812 150.4375 423.222656 151.84375 421.816406 C 153.25 420.410156 155.15625 419.621094 157.148438 419.621094 L 205.855469 419.621094 C 207.84375 419.621094 209.75 420.410156 211.15625 421.816406 C 212.5625 423.222656 213.355469 425.132812 213.355469 427.121094 L 213.355469 475.871094 C 213.355469 477.859375 212.5625 479.769531 211.15625 481.175781 C 209.75 482.582031 207.84375 483.371094 205.855469 483.371094 Z M 205.855469 483.371094 " clip-rule="nonzero"/></clipPath><clipPath id="e7891c5491"><path d="M 0.648438 0.519531 L 64.359375 0.519531 L 64.359375 64.578125 L 0.648438 64.578125 Z M 0.648438 0.519531 " clip-rule="nonzero"/></clipPath><clipPath id="4ef8f04fd5"><path d="M 56.855469 64.371094 L 8.148438 64.371094 C 6.15625 64.371094 4.25 63.582031 2.84375 62.175781 C 1.4375 60.769531 0.648438 58.859375 0.648438 56.871094 L 0.648438 8.121094 C 0.648438 6.132812 1.4375 4.222656 2.84375 2.816406 C 4.25 1.410156 6.15625 0.621094 8.148438 0.621094 L 56.855469 0.621094 C 58.84375 0.621094 60.75 1.410156 62.15625 2.816406 C 63.5625 4.222656 64.355469 6.132812 64.355469 8.121094 L 64.355469 56.871094 C 64.355469 58.859375 63.5625 60.769531 62.15625 62.175781 C 60.75 63.582031 58.84375 64.371094 56.855469 64.371094 Z M 56.855469 64.371094 " clip-rule="nonzero"/></clipPath><clipPath id="6746d0c6a7"><rect x="0" width="65" y="0" height="65"/></clipPath><clipPath id="c7bb971b70"><path d="M 149.605469 419.621094 L 213.332031 419.621094 L 213.332031 483.371094 L 149.605469 483.371094 Z M 149.605469 419.621094 " clip-rule="nonzero"/></clipPath><clipPath id="bb378cd875"><path d="M 205.832031 483.371094 L 157.125 483.371094 C 155.136719 483.371094 153.230469 482.582031 151.820312 481.175781 C 150.414062 479.769531 149.625 477.859375 149.625 475.871094 L 149.625 427.121094 C 149.625 425.132812 150.414062 423.222656 151.820312 421.816406 C 153.230469 420.410156 155.136719 419.621094 157.125 419.621094 L 205.832031 419.621094 C 207.820312 419.621094 209.730469 420.410156 211.136719 421.816406 C 212.542969 423.222656 213.332031 425.132812 213.332031 427.121094 L 213.332031 475.871094 C 213.332031 477.859375 212.542969 479.769531 211.136719 481.175781 C 209.730469 482.582031 207.820312 483.371094 205.832031 483.371094 Z M 205.832031 483.371094 " clip-rule="nonzero"/></clipPath><clipPath id="b4e1d381c1"><path d="M 217.148438 419.371094 L 281 419.371094 L 281 483.578125 L 217.148438 483.578125 Z M 217.148438 419.371094 " clip-rule="nonzero"/></clipPath><clipPath id="c6ee8155e4"><path d="M 273.355469 483.371094 L 224.648438 483.371094 C 222.65625 483.371094 220.75 482.582031 219.34375 481.175781 C 217.9375 479.769531 217.148438 477.859375 217.148438 475.871094 L 217.148438 427.121094 C 217.148438 425.132812 217.9375 423.222656 219.34375 421.816406 C 220.75 420.410156 222.65625 419.621094 224.648438 419.621094 L 273.355469 419.621094 C 275.34375 419.621094 277.25 420.410156 278.65625 421.816406 C 280.0625 423.222656 280.855469 425.132812 280.855469 427.121094 L 280.855469 475.871094 C 280.855469 477.859375 280.0625 479.769531 278.65625 481.175781 C 277.25 482.582031 275.34375 483.371094 273.355469 483.371094 Z M 273.355469 483.371094 " clip-rule="nonzero"/></clipPath><clipPath id="5545db47c3"><path d="M 0.148438 0.519531 L 64 0.519531 L 64 64.578125 L 0.148438 64.578125 Z M 0.148438 0.519531 " clip-rule="nonzero"/></clipPath><clipPath id="2a6e90c7be"><path d="M 56.355469 64.371094 L 7.648438 64.371094 C 5.65625 64.371094 3.75 63.582031 2.34375 62.175781 C 0.9375 60.769531 0.148438 58.859375 0.148438 56.871094 L 0.148438 8.121094 C 0.148438 6.132812 0.9375 4.222656 2.34375 2.816406 C 3.75 1.410156 5.65625 0.621094 7.648438 0.621094 L 56.355469 0.621094 C 58.34375 0.621094 60.25 1.410156 61.65625 2.816406 C 63.0625 4.222656 63.855469 6.132812 63.855469 8.121094 L 63.855469 56.871094 C 63.855469 58.859375 63.0625 60.769531 61.65625 62.175781 C 60.25 63.582031 58.34375 64.371094 56.355469 64.371094 Z M 56.355469 64.371094 " clip-rule="nonzero"/></clipPath><clipPath id="55200d1acd"><rect x="0" width="64" y="0" height="65"/></clipPath><clipPath id="7dc70fcc33"><path d="M 217.105469 419.621094 L 280.832031 419.621094 L 280.832031 483.371094 L 217.105469 483.371094 Z M 217.105469 419.621094 " clip-rule="nonzero"/></clipPath><clipPath id="f21f9f235a"><path d="M 273.332031 483.371094 L 224.625 483.371094 C 222.636719 483.371094 220.730469 482.582031 219.320312 481.175781 C 217.914062 479.769531 217.125 477.859375 217.125 475.871094 L 217.125 427.121094 C 217.125 425.132812 217.914062 423.222656 219.320312 421.816406 C 220.730469 420.410156 222.636719 419.621094 224.625 419.621094 L 273.332031 419.621094 C 275.320312 419.621094 277.230469 420.410156 278.636719 421.816406 C 280.042969 423.222656 280.832031 425.132812 280.832031 427.121094 L 280.832031 475.871094 C 280.832031 477.859375 280.042969 479.769531 278.636719 481.175781 C 277.230469 482.582031 275.320312 483.371094 273.332031 483.371094 Z M 273.332031 483.371094 " clip-rule="nonzero"/></clipPath><clipPath id="d97948cb7f"><path d="M 217.148438 149.371094 L 281 149.371094 L 281 213.578125 L 217.148438 213.578125 Z M 217.148438 149.371094 " clip-rule="nonzero"/></clipPath><clipPath id="404099f269"><path d="M 273.355469 213.371094 L 224.648438 213.371094 C 222.65625 213.371094 220.75 212.582031 219.34375 211.175781 C 217.9375 209.769531 217.148438 207.859375 217.148438 205.871094 L 217.148438 157.121094 C 217.148438 155.132812 217.9375 153.222656 219.34375 151.816406 C 220.75 150.410156 222.65625 149.621094 224.648438 149.621094 L 273.355469 149.621094 C 275.34375 149.621094 277.25 150.410156 278.65625 151.816406 C 280.0625 153.222656 280.855469 155.132812 280.855469 157.121094 L 280.855469 205.871094 C 280.855469 207.859375 280.0625 209.769531 278.65625 211.175781 C 277.25 212.582031 275.34375 213.371094 273.355469 213.371094 Z M 273.355469 213.371094 " clip-rule="nonzero"/></clipPath><clipPath id="549b352698"><path d="M 0.148438 0.519531 L 64 0.519531 L 64 64.578125 L 0.148438 64.578125 Z M 0.148438 0.519531 " clip-rule="nonzero"/></clipPath><clipPath id="bbbdac4ac8"><path d="M 56.355469 64.371094 L 7.648438 64.371094 C 5.65625 64.371094 3.75 63.582031 2.34375 62.175781 C 0.9375 60.769531 0.148438 58.859375 0.148438 56.871094 L 0.148438 8.121094 C 0.148438 6.132812 0.9375 4.222656 2.34375 2.816406 C 3.75 1.410156 5.65625 0.621094 7.648438 0.621094 L 56.355469 0.621094 C 58.34375 0.621094 60.25 1.410156 61.65625 2.816406 C 63.0625 4.222656 63.855469 6.132812 63.855469 8.121094 L 63.855469 56.871094 C 63.855469 58.859375 63.0625 60.769531 61.65625 62.175781 C 60.25 63.582031 58.34375 64.371094 56.355469 64.371094 Z M 56.355469 64.371094 " clip-rule="nonzero"/></clipPath><clipPath id="719c96ccc0"><rect x="0" width="64" y="0" height="65"/></clipPath><clipPath id="4e3cfbf9d2"><path d="M 217.105469 149.621094 L 280.832031 149.621094 L 280.832031 213.371094 L 217.105469 213.371094 Z M 217.105469 149.621094 " clip-rule="nonzero"/></clipPath><clipPath id="3d037311be"><path d="M 273.332031 213.371094 L 224.625 213.371094 C 222.636719 213.371094 220.730469 212.582031 219.320312 211.175781 C 217.914062 209.769531 217.125 207.859375 217.125 205.871094 L 217.125 157.121094 C 217.125 155.132812 217.914062 153.222656 219.320312 151.816406 C 220.730469 150.410156 222.636719 149.621094 224.625 149.621094 L 273.332031 149.621094 C 275.320312 149.621094 277.230469 150.410156 278.636719 151.816406 C 280.042969 153.222656 280.832031 155.132812 280.832031 157.121094 L 280.832031 205.871094 C 280.832031 207.859375 280.042969 209.769531 278.636719 211.175781 C 277.230469 212.582031 275.320312 213.371094 273.332031 213.371094 Z M 273.332031 213.371094 " clip-rule="nonzero"/></clipPath><clipPath id="ad6bdb8df9"><path d="M 284.65625 419.371094 L 348.613281 419.371094 L 348.613281 483.578125 L 284.65625 483.578125 Z M 284.65625 419.371094 " clip-rule="nonzero"/></clipPath><clipPath id="c3b4ab75d6"><path d="M 340.863281 483.371094 L 292.15625 483.371094 C 290.164062 483.371094 288.257812 482.582031 286.851562 481.175781 C 285.445312 479.769531 284.65625 477.859375 284.65625 475.871094 L 284.65625 427.121094 C 284.65625 425.132812 285.445312 423.222656 286.851562 421.816406 C 288.257812 420.410156 290.164062 419.621094 292.15625 419.621094 L 340.863281 419.621094 C 342.851562 419.621094 344.757812 420.410156 346.164062 421.816406 C 347.574219 423.222656 348.363281 425.132812 348.363281 427.121094 L 348.363281 475.871094 C 348.363281 477.859375 347.574219 479.769531 346.164062 481.175781 C 344.757812 482.582031 342.851562 483.371094 340.863281 483.371094 Z M 340.863281 483.371094 " clip-rule="nonzero"/></clipPath><clipPath id="21b8d426df"><path d="M 0.65625 0.519531 L 64.480469 0.519531 L 64.480469 64.578125 L 0.65625 64.578125 Z M 0.65625 0.519531 " clip-rule="nonzero"/></clipPath><clipPath id="0623ea6899"><path d="M 56.863281 64.371094 L 8.15625 64.371094 C 6.164062 64.371094 4.257812 63.582031 2.851562 62.175781 C 1.445312 60.769531 0.65625 58.859375 0.65625 56.871094 L 0.65625 8.121094 C 0.65625 6.132812 1.445312 4.222656 2.851562 2.816406 C 4.257812 1.410156 6.164062 0.621094 8.15625 0.621094 L 56.863281 0.621094 C 58.851562 0.621094 60.757812 1.410156 62.164062 2.816406 C 63.574219 4.222656 64.363281 6.132812 64.363281 8.121094 L 64.363281 56.871094 C 64.363281 58.859375 63.574219 60.769531 62.164062 62.175781 C 60.757812 63.582031 58.851562 64.371094 56.863281 64.371094 Z M 56.863281 64.371094 " clip-rule="nonzero"/></clipPath><clipPath id="f0218e5796"><rect x="0" width="65" y="0" height="65"/></clipPath><clipPath id="21faf68de5"><path d="M 284.613281 419.621094 L 348.339844 419.621094 L 348.339844 483.371094 L 284.613281 483.371094 Z M 284.613281 419.621094 " clip-rule="nonzero"/></clipPath><clipPath id="f3cdda871f"><path d="M 340.839844 483.371094 L 292.132812 483.371094 C 290.144531 483.371094 288.238281 482.582031 286.832031 481.175781 C 285.425781 479.769531 284.632812 477.859375 284.632812 475.871094 L 284.632812 427.121094 C 284.632812 425.132812 285.425781 423.222656 286.832031 421.816406 C 288.238281 420.410156 290.144531 419.621094 292.132812 419.621094 L 340.839844 419.621094 C 342.832031 419.621094 344.738281 420.410156 346.144531 421.816406 C 347.550781 423.222656 348.339844 425.132812 348.339844 427.121094 L 348.339844 475.871094 C 348.339844 477.859375 347.550781 479.769531 346.144531 481.175781 C 344.738281 482.582031 342.832031 483.371094 340.839844 483.371094 Z M 340.839844 483.371094 " clip-rule="nonzero"/></clipPath><clipPath id="7fcc37e1fe"><path d="M 284.65625 149.371094 L 348.613281 149.371094 L 348.613281 213.578125 L 284.65625 213.578125 Z M 284.65625 149.371094 " clip-rule="nonzero"/></clipPath><clipPath id="54c6b90373"><path d="M 340.863281 213.371094 L 292.15625 213.371094 C 290.164062 213.371094 288.257812 212.582031 286.851562 211.175781 C 285.445312 209.769531 284.65625 207.859375 284.65625 205.871094 L 284.65625 157.121094 C 284.65625 155.132812 285.445312 153.222656 286.851562 151.816406 C 288.257812 150.410156 290.164062 149.621094 292.15625 149.621094 L 340.863281 149.621094 C 342.851562 149.621094 344.757812 150.410156 346.164062 151.816406 C 347.574219 153.222656 348.363281 155.132812 348.363281 157.121094 L 348.363281 205.871094 C 348.363281 207.859375 347.574219 209.769531 346.164062 211.175781 C 344.757812 212.582031 342.851562 213.371094 340.863281 213.371094 Z M 340.863281 213.371094 " clip-rule="nonzero"/></clipPath><clipPath id="799d611c50"><path d="M 0.65625 0.519531 L 64.480469 0.519531 L 64.480469 64.578125 L 0.65625 64.578125 Z M 0.65625 0.519531 " clip-rule="nonzero"/></clipPath><clipPath id="9154c184f7"><path d="M 56.863281 64.371094 L 8.15625 64.371094 C 6.164062 64.371094 4.257812 63.582031 2.851562 62.175781 C 1.445312 60.769531 0.65625 58.859375 0.65625 56.871094 L 0.65625 8.121094 C 0.65625 6.132812 1.445312 4.222656 2.851562 2.816406 C 4.257812 1.410156 6.164062 0.621094 8.15625 0.621094 L 56.863281 0.621094 C 58.851562 0.621094 60.757812 1.410156 62.164062 2.816406 C 63.574219 4.222656 64.363281 6.132812 64.363281 8.121094 L 64.363281 56.871094 C 64.363281 58.859375 63.574219 60.769531 62.164062 62.175781 C 60.757812 63.582031 58.851562 64.371094 56.863281 64.371094 Z M 56.863281 64.371094 " clip-rule="nonzero"/></clipPath><clipPath id="d4abfd2380"><rect x="0" width="65" y="0" height="65"/></clipPath><clipPath id="54cebda66f"><path d="M 284.613281 149.621094 L 348.339844 149.621094 L 348.339844 213.371094 L 284.613281 213.371094 Z M 284.613281 149.621094 " clip-rule="nonzero"/></clipPath><clipPath id="521eaa032a"><path d="M 340.839844 213.371094 L 292.132812 213.371094 C 290.144531 213.371094 288.238281 212.582031 286.832031 211.175781 C 285.425781 209.769531 284.632812 207.859375 284.632812 205.871094 L 284.632812 157.121094 C 284.632812 155.132812 285.425781 153.222656 286.832031 151.816406 C 288.238281 150.410156 290.144531 149.621094 292.132812 149.621094 L 340.839844 149.621094 C 342.832031 149.621094 344.738281 150.410156 346.144531 151.816406 C 347.550781 153.222656 348.339844 155.132812 348.339844 157.121094 L 348.339844 205.871094 C 348.339844 207.859375 347.550781 209.769531 346.144531 211.175781 C 344.738281 212.582031 342.832031 213.371094 340.839844 213.371094 Z M 340.839844 213.371094 " clip-rule="nonzero"/></clipPath><clipPath id="9a5f1bd95a"><path d="M 352.164062 419.371094 L 416 419.371094 L 416 483.578125 L 352.164062 483.578125 Z M 352.164062 419.371094 " clip-rule="nonzero"/></clipPath><clipPath id="796639604e"><path d="M 408.371094 483.371094 L 359.664062 483.371094 C 357.675781 483.371094 355.765625 482.582031 354.359375 481.175781 C 352.953125 479.769531 352.164062 477.859375 352.164062 475.871094 L 352.164062 427.121094 C 352.164062 425.132812 352.953125 423.222656 354.359375 421.816406 C 355.765625 420.410156 357.675781 419.621094 359.664062 419.621094 L 408.371094 419.621094 C 410.359375 419.621094 412.269531 420.410156 413.675781 421.816406 C 415.082031 423.222656 415.871094 425.132812 415.871094 427.121094 L 415.871094 475.871094 C 415.871094 477.859375 415.082031 479.769531 413.675781 481.175781 C 412.269531 482.582031 410.359375 483.371094 408.371094 483.371094 Z M 408.371094 483.371094 " clip-rule="nonzero"/></clipPath><clipPath id="3840ee8705"><path d="M 0.164062 0.519531 L 63.921875 0.519531 L 63.921875 64.578125 L 0.164062 64.578125 Z M 0.164062 0.519531 " clip-rule="nonzero"/></clipPath><clipPath id="a2d45d9a52"><path d="M 56.371094 64.371094 L 7.664062 64.371094 C 5.675781 64.371094 3.765625 63.582031 2.359375 62.175781 C 0.953125 60.769531 0.164062 58.859375 0.164062 56.871094 L 0.164062 8.121094 C 0.164062 6.132812 0.953125 4.222656 2.359375 2.816406 C 3.765625 1.410156 5.675781 0.621094 7.664062 0.621094 L 56.371094 0.621094 C 58.359375 0.621094 60.269531 1.410156 61.675781 2.816406 C 63.082031 4.222656 63.871094 6.132812 63.871094 8.121094 L 63.871094 56.871094 C 63.871094 58.859375 63.082031 60.769531 61.675781 62.175781 C 60.269531 63.582031 58.359375 64.371094 56.371094 64.371094 Z M 56.371094 64.371094 " clip-rule="nonzero"/></clipPath><clipPath id="26d3b4c353"><rect x="0" width="64" y="0" height="65"/></clipPath><clipPath id="640ab669a1"><path d="M 352.121094 419.621094 L 415.851562 419.621094 L 415.851562 483.371094 L 352.121094 483.371094 Z M 352.121094 419.621094 " clip-rule="nonzero"/></clipPath><clipPath id="dd3c6b76fd"><path d="M 408.351562 483.371094 L 359.640625 483.371094 C 357.652344 483.371094 355.746094 482.582031 354.339844 481.175781 C 352.933594 479.769531 352.140625 477.859375 352.140625 475.871094 L 352.140625 427.121094 C 352.140625 425.132812 352.933594 423.222656 354.339844 421.816406 C 355.746094 420.410156 357.652344 419.621094 359.640625 419.621094 L 408.351562 419.621094 C 410.339844 419.621094 412.246094 420.410156 413.652344 421.816406 C 415.058594 423.222656 415.851562 425.132812 415.851562 427.121094 L 415.851562 475.871094 C 415.851562 477.859375 415.058594 479.769531 413.652344 481.175781 C 412.246094 482.582031 410.339844 483.371094 408.351562 483.371094 Z M 408.351562 483.371094 " clip-rule="nonzero"/></clipPath><clipPath id="399f64ca08"><path d="M 352.164062 352 L 416 352 L 416 416 L 352.164062 416 Z M 352.164062 352 " clip-rule="nonzero"/></clipPath><clipPath id="4a48465344"><path d="M 408.371094 415.871094 L 359.664062 415.871094 C 357.675781 415.871094 355.765625 415.082031 354.359375 413.675781 C 352.953125 412.269531 352.164062 410.359375 352.164062 408.371094 L 352.164062 359.621094 C 352.164062 357.632812 352.953125 355.722656 354.359375 354.316406 C 355.765625 352.910156 357.675781 352.121094 359.664062 352.121094 L 408.371094 352.121094 C 410.359375 352.121094 412.269531 352.910156 413.675781 354.316406 C 415.082031 355.722656 415.871094 357.632812 415.871094 359.621094 L 415.871094 408.371094 C 415.871094 410.359375 415.082031 412.269531 413.675781 413.675781 C 412.269531 415.082031 410.359375 415.871094 408.371094 415.871094 Z M 408.371094 415.871094 " clip-rule="nonzero"/></clipPath><clipPath id="6877e21944"><path d="M 0.164062 0.078125 L 63.921875 0.078125 L 63.921875 63.921875 L 0.164062 63.921875 Z M 0.164062 0.078125 " clip-rule="nonzero"/></clipPath><clipPath id="eac9d48a96"><path d="M 56.371094 63.871094 L 7.664062 63.871094 C 5.675781 63.871094 3.765625 63.082031 2.359375 61.675781 C 0.953125 60.269531 0.164062 58.359375 0.164062 56.371094 L 0.164062 7.621094 C 0.164062 5.632812 0.953125 3.722656 2.359375 2.316406 C 3.765625 0.910156 5.675781 0.121094 7.664062 0.121094 L 56.371094 0.121094 C 58.359375 0.121094 60.269531 0.910156 61.675781 2.316406 C 63.082031 3.722656 63.871094 5.632812 63.871094 7.621094 L 63.871094 56.371094 C 63.871094 58.359375 63.082031 60.269531 61.675781 61.675781 C 60.269531 63.082031 58.359375 63.871094 56.371094 63.871094 Z M 56.371094 63.871094 " clip-rule="nonzero"/></clipPath><clipPath id="891800473b"><rect x="0" width="64" y="0" height="64"/></clipPath><clipPath id="96c2ba86e4"><path d="M 352.121094 352.121094 L 415.851562 352.121094 L 415.851562 415.871094 L 352.121094 415.871094 Z M 352.121094 352.121094 " clip-rule="nonzero"/></clipPath><clipPath id="eba4580122"><path d="M 408.351562 415.871094 L 359.640625 415.871094 C 357.652344 415.871094 355.746094 415.082031 354.339844 413.675781 C 352.933594 412.269531 352.140625 410.359375 352.140625 408.371094 L 352.140625 359.621094 C 352.140625 357.632812 352.933594 355.722656 354.339844 354.316406 C 355.746094 352.910156 357.652344 352.121094 359.640625 352.121094 L 408.351562 352.121094 C 410.339844 352.121094 412.246094 352.910156 413.652344 354.316406 C 415.058594 355.722656 415.851562 357.632812 415.851562 359.621094 L 415.851562 408.371094 C 415.851562 410.359375 415.058594 412.269531 413.652344 413.675781 C 412.246094 415.082031 410.339844 415.871094 408.351562 415.871094 Z M 408.351562 415.871094 " clip-rule="nonzero"/></clipPath><clipPath id="ba24464520"><path d="M 352.164062 284.371094 L 416 284.371094 L 416 348.578125 L 352.164062 348.578125 Z M 352.164062 284.371094 " clip-rule="nonzero"/></clipPath><clipPath id="711bfe6f54"><path d="M 408.371094 348.371094 L 359.664062 348.371094 C 357.675781 348.371094 355.765625 347.582031 354.359375 346.175781 C 352.953125 344.769531 352.164062 342.859375 352.164062 340.871094 L 352.164062 292.121094 C 352.164062 290.132812 352.953125 288.222656 354.359375 286.816406 C 355.765625 285.410156 357.675781 284.621094 359.664062 284.621094 L 408.371094 284.621094 C 410.359375 284.621094 412.269531 285.410156 413.675781 286.816406 C 415.082031 288.222656 415.871094 290.132812 415.871094 292.121094 L 415.871094 340.871094 C 415.871094 342.859375 415.082031 344.769531 413.675781 346.175781 C 412.269531 347.582031 410.359375 348.371094 408.371094 348.371094 Z M 408.371094 348.371094 " clip-rule="nonzero"/></clipPath><clipPath id="fa8b67f108"><path d="M 0.164062 0.398438 L 63.921875 0.398438 L 63.921875 64.480469 L 0.164062 64.480469 Z M 0.164062 0.398438 " clip-rule="nonzero"/></clipPath><clipPath id="2c097cf0ed"><path d="M 56.371094 64.371094 L 7.664062 64.371094 C 5.675781 64.371094 3.765625 63.582031 2.359375 62.175781 C 0.953125 60.769531 0.164062 58.859375 0.164062 56.871094 L 0.164062 8.121094 C 0.164062 6.132812 0.953125 4.222656 2.359375 2.816406 C 3.765625 1.410156 5.675781 0.621094 7.664062 0.621094 L 56.371094 0.621094 C 58.359375 0.621094 60.269531 1.410156 61.675781 2.816406 C 63.082031 4.222656 63.871094 6.132812 63.871094 8.121094 L 63.871094 56.871094 C 63.871094 58.859375 63.082031 60.769531 61.675781 62.175781 C 60.269531 63.582031 58.359375 64.371094 56.371094 64.371094 Z M 56.371094 64.371094 " clip-rule="nonzero"/></clipPath><clipPath id="4cf5666cbb"><rect x="0" width="64" y="0" height="65"/></clipPath><clipPath id="76486afcf6"><path d="M 352.121094 284.621094 L 415.851562 284.621094 L 415.851562 348.371094 L 352.121094 348.371094 Z M 352.121094 284.621094 " clip-rule="nonzero"/></clipPath><clipPath id="7442c76800"><path d="M 408.351562 348.371094 L 359.640625 348.371094 C 357.652344 348.371094 355.746094 347.582031 354.339844 346.175781 C 352.933594 344.769531 352.140625 342.859375 352.140625 340.871094 L 352.140625 292.121094 C 352.140625 290.132812 352.933594 288.222656 354.339844 286.816406 C 355.746094 285.410156 357.652344 284.621094 359.640625 284.621094 L 408.351562 284.621094 C 410.339844 284.621094 412.246094 285.410156 413.652344 286.816406 C 415.058594 288.222656 415.851562 290.132812 415.851562 292.121094 L 415.851562 340.871094 C 415.851562 342.859375 415.058594 344.769531 413.652344 346.175781 C 412.246094 347.582031 410.339844 348.371094 408.351562 348.371094 Z M 408.351562 348.371094 " clip-rule="nonzero"/></clipPath><clipPath id="2615420ef4"><path d="M 352.164062 217 L 416 217 L 416 281 L 352.164062 281 Z M 352.164062 217 " clip-rule="nonzero"/></clipPath><clipPath id="919c7c4488"><path d="M 408.371094 280.871094 L 359.664062 280.871094 C 357.675781 280.871094 355.765625 280.082031 354.359375 278.675781 C 352.953125 277.269531 352.164062 275.359375 352.164062 273.371094 L 352.164062 224.621094 C 352.164062 222.632812 352.953125 220.722656 354.359375 219.316406 C 355.765625 217.910156 357.675781 217.121094 359.664062 217.121094 L 408.371094 217.121094 C 410.359375 217.121094 412.269531 217.910156 413.675781 219.316406 C 415.082031 220.722656 415.871094 222.632812 415.871094 224.621094 L 415.871094 273.371094 C 415.871094 275.359375 415.082031 277.269531 413.675781 278.675781 C 412.269531 280.082031 410.359375 280.871094 408.371094 280.871094 Z M 408.371094 280.871094 " clip-rule="nonzero"/></clipPath><clipPath id="9156ea81bf"><path d="M 0.164062 0 L 63.921875 0 L 63.921875 64 L 0.164062 64 Z M 0.164062 0 " clip-rule="nonzero"/></clipPath><clipPath id="c6533d88b1"><path d="M 56.371094 63.871094 L 7.664062 63.871094 C 5.675781 63.871094 3.765625 63.082031 2.359375 61.675781 C 0.953125 60.269531 0.164062 58.359375 0.164062 56.371094 L 0.164062 7.621094 C 0.164062 5.632812 0.953125 3.722656 2.359375 2.316406 C 3.765625 0.910156 5.675781 0.121094 7.664062 0.121094 L 56.371094 0.121094 C 58.359375 0.121094 60.269531 0.910156 61.675781 2.316406 C 63.082031 3.722656 63.871094 5.632812 63.871094 7.621094 L 63.871094 56.371094 C 63.871094 58.359375 63.082031 60.269531 61.675781 61.675781 C 60.269531 63.082031 58.359375 63.871094 56.371094 63.871094 Z M 56.371094 63.871094 " clip-rule="nonzero"/></clipPath><clipPath id="565d41679a"><rect x="0" width="64" y="0" height="64"/></clipPath><clipPath id="cecd6bb9b1"><path d="M 352.121094 217.121094 L 415.851562 217.121094 L 415.851562 280.871094 L 352.121094 280.871094 Z M 352.121094 217.121094 " clip-rule="nonzero"/></clipPath><clipPath id="fd0245cc61"><path d="M 408.351562 280.871094 L 359.640625 280.871094 C 357.652344 280.871094 355.746094 280.082031 354.339844 278.675781 C 352.933594 277.269531 352.140625 275.359375 352.140625 273.371094 L 352.140625 224.621094 C 352.140625 222.632812 352.933594 220.722656 354.339844 219.316406 C 355.746094 217.910156 357.652344 217.121094 359.640625 217.121094 L 408.351562 217.121094 C 410.339844 217.121094 412.246094 217.910156 413.652344 219.316406 C 415.058594 220.722656 415.851562 222.632812 415.851562 224.621094 L 415.851562 273.371094 C 415.851562 275.359375 415.058594 277.269531 413.652344 278.675781 C 412.246094 280.082031 410.339844 280.871094 408.351562 280.871094 Z M 408.351562 280.871094 " clip-rule="nonzero"/></clipPath><clipPath id="b737617139"><path d="M 352.164062 487 L 416 487 L 416 551 L 352.164062 551 Z M 352.164062 487 " clip-rule="nonzero"/></clipPath><clipPath id="94f71c3f45"><path d="M 408.371094 550.871094 L 359.664062 550.871094 C 357.675781 550.871094 355.765625 550.082031 354.359375 548.675781 C 352.953125 547.269531 352.164062 545.359375 352.164062 543.371094 L 352.164062 494.621094 C 352.164062 492.632812 352.953125 490.722656 354.359375 489.316406 C 355.765625 487.910156 357.675781 487.121094 359.664062 487.121094 L 408.371094 487.121094 C 410.359375 487.121094 412.269531 487.910156 413.675781 489.316406 C 415.082031 490.722656 415.871094 492.632812 415.871094 494.621094 L 415.871094 543.371094 C 415.871094 545.359375 415.082031 547.269531 413.675781 548.675781 C 412.269531 550.082031 410.359375 550.871094 408.371094 550.871094 Z M 408.371094 550.871094 " clip-rule="nonzero"/></clipPath><clipPath id="ff427a9528"><path d="M 0.164062 0 L 63.921875 0 L 63.921875 64 L 0.164062 64 Z M 0.164062 0 " clip-rule="nonzero"/></clipPath><clipPath id="8b5be24bbd"><path d="M 56.371094 63.871094 L 7.664062 63.871094 C 5.675781 63.871094 3.765625 63.082031 2.359375 61.675781 C 0.953125 60.269531 0.164062 58.359375 0.164062 56.371094 L 0.164062 7.621094 C 0.164062 5.632812 0.953125 3.722656 2.359375 2.316406 C 3.765625 0.910156 5.675781 0.121094 7.664062 0.121094 L 56.371094 0.121094 C 58.359375 0.121094 60.269531 0.910156 61.675781 2.316406 C 63.082031 3.722656 63.871094 5.632812 63.871094 7.621094 L 63.871094 56.371094 C 63.871094 58.359375 63.082031 60.269531 61.675781 61.675781 C 60.269531 63.082031 58.359375 63.871094 56.371094 63.871094 Z M 56.371094 63.871094 " clip-rule="nonzero"/></clipPath><clipPath id="fc991b4afa"><rect x="0" width="64" y="0" height="64"/></clipPath><clipPath id="464e65b40a"><path d="M 352.121094 487.121094 L 415.851562 487.121094 L 415.851562 550.871094 L 352.121094 550.871094 Z M 352.121094 487.121094 " clip-rule="nonzero"/></clipPath><clipPath id="bac3644de7"><path d="M 408.351562 550.871094 L 359.640625 550.871094 C 357.652344 550.871094 355.746094 550.082031 354.339844 548.675781 C 352.933594 547.269531 352.140625 545.359375 352.140625 543.371094 L 352.140625 494.621094 C 352.140625 492.632812 352.933594 490.722656 354.339844 489.316406 C 355.746094 487.910156 357.652344 487.121094 359.640625 487.121094 L 408.351562 487.121094 C 410.339844 487.121094 412.246094 487.910156 413.652344 489.316406 C 415.058594 490.722656 415.851562 492.632812 415.851562 494.621094 L 415.851562 543.371094 C 415.851562 545.359375 415.058594 547.269531 413.652344 548.675781 C 412.246094 550.082031 410.339844 550.871094 408.351562 550.871094 Z M 408.351562 550.871094 " clip-rule="nonzero"/></clipPath><clipPath id="a9c9329368"><path d="M 352.164062 554.371094 L 416 554.371094 L 416 618.578125 L 352.164062 618.578125 Z M 352.164062 554.371094 " clip-rule="nonzero"/></clipPath><clipPath id="ca7560a56b"><path d="M 408.371094 618.371094 L 359.664062 618.371094 C 357.675781 618.371094 355.765625 617.582031 354.359375 616.175781 C 352.953125 614.769531 352.164062 612.859375 352.164062 610.871094 L 352.164062 562.121094 C 352.164062 560.132812 352.953125 558.222656 354.359375 556.816406 C 355.765625 555.410156 357.675781 554.621094 359.664062 554.621094 L 408.371094 554.621094 C 410.359375 554.621094 412.269531 555.410156 413.675781 556.816406 C 415.082031 558.222656 415.871094 560.132812 415.871094 562.121094 L 415.871094 610.871094 C 415.871094 612.859375 415.082031 614.769531 413.675781 616.175781 C 412.269531 617.582031 410.359375 618.371094 408.371094 618.371094 Z M 408.371094 618.371094 " clip-rule="nonzero"/></clipPath><clipPath id="4a5a95f9de"><path d="M 0.164062 0.398438 L 63.921875 0.398438 L 63.921875 64.480469 L 0.164062 64.480469 Z M 0.164062 0.398438 " clip-rule="nonzero"/></clipPath><clipPath id="058ee77905"><path d="M 56.371094 64.371094 L 7.664062 64.371094 C 5.675781 64.371094 3.765625 63.582031 2.359375 62.175781 C 0.953125 60.769531 0.164062 58.859375 0.164062 56.871094 L 0.164062 8.121094 C 0.164062 6.132812 0.953125 4.222656 2.359375 2.816406 C 3.765625 1.410156 5.675781 0.621094 7.664062 0.621094 L 56.371094 0.621094 C 58.359375 0.621094 60.269531 1.410156 61.675781 2.816406 C 63.082031 4.222656 63.871094 6.132812 63.871094 8.121094 L 63.871094 56.871094 C 63.871094 58.859375 63.082031 60.769531 61.675781 62.175781 C 60.269531 63.582031 58.359375 64.371094 56.371094 64.371094 Z M 56.371094 64.371094 " clip-rule="nonzero"/></clipPath><clipPath id="26f5ae0908"><rect x="0" width="64" y="0" height="65"/></clipPath><clipPath id="008ab2ba25"><path d="M 352.121094 554.621094 L 415.851562 554.621094 L 415.851562 618.371094 L 352.121094 618.371094 Z M 352.121094 554.621094 " clip-rule="nonzero"/></clipPath><clipPath id="5786fac41a"><path d="M 408.351562 618.371094 L 359.640625 618.371094 C 357.652344 618.371094 355.746094 617.582031 354.339844 616.175781 C 352.933594 614.769531 352.140625 612.859375 352.140625 610.871094 L 352.140625 562.121094 C 352.140625 560.132812 352.933594 558.222656 354.339844 556.816406 C 355.746094 555.410156 357.652344 554.621094 359.640625 554.621094 L 408.351562 554.621094 C 410.339844 554.621094 412.246094 555.410156 413.652344 556.816406 C 415.058594 558.222656 415.851562 560.132812 415.851562 562.121094 L 415.851562 610.871094 C 415.851562 612.859375 415.058594 614.769531 413.652344 616.175781 C 412.246094 617.582031 410.339844 618.371094 408.351562 618.371094 Z M 408.351562 618.371094 " clip-rule="nonzero"/></clipPath><clipPath id="405498555f"><path d="M 419.671875 419.371094 L 483.628906 419.371094 L 483.628906 483.578125 L 419.671875 483.578125 Z M 419.671875 419.371094 " clip-rule="nonzero"/></clipPath><clipPath id="4068ad6819"><path d="M 475.878906 483.371094 L 427.171875 483.371094 C 425.183594 483.371094 423.273438 482.582031 421.867188 481.175781 C 420.460938 479.769531 419.671875 477.859375 419.671875 475.871094 L 419.671875 427.121094 C 419.671875 425.132812 420.460938 423.222656 421.867188 421.816406 C 423.273438 420.410156 425.183594 419.621094 427.171875 419.621094 L 475.878906 419.621094 C 477.867188 419.621094 479.777344 420.410156 481.183594 421.816406 C 482.589844 423.222656 483.378906 425.132812 483.378906 427.121094 L 483.378906 475.871094 C 483.378906 477.859375 482.589844 479.769531 481.183594 481.175781 C 479.777344 482.582031 477.867188 483.371094 475.878906 483.371094 Z M 475.878906 483.371094 " clip-rule="nonzero"/></clipPath><clipPath id="d0e958843a"><path d="M 0.671875 0.519531 L 64.601562 0.519531 L 64.601562 64.578125 L 0.671875 64.578125 Z M 0.671875 0.519531 " clip-rule="nonzero"/></clipPath><clipPath id="947243db67"><path d="M 56.878906 64.371094 L 8.171875 64.371094 C 6.183594 64.371094 4.273438 63.582031 2.867188 62.175781 C 1.460938 60.769531 0.671875 58.859375 0.671875 56.871094 L 0.671875 8.121094 C 0.671875 6.132812 1.460938 4.222656 2.867188 2.816406 C 4.273438 1.410156 6.183594 0.621094 8.171875 0.621094 L 56.878906 0.621094 C 58.867188 0.621094 60.777344 1.410156 62.183594 2.816406 C 63.589844 4.222656 64.378906 6.132812 64.378906 8.121094 L 64.378906 56.871094 C 64.378906 58.859375 63.589844 60.769531 62.183594 62.175781 C 60.777344 63.582031 58.867188 64.371094 56.878906 64.371094 Z M 56.878906 64.371094 " clip-rule="nonzero"/></clipPath><clipPath id="9a13c0c1cc"><rect x="0" width="65" y="0" height="65"/></clipPath><clipPath id="aaabf30fc8"><path d="M 419.628906 419.621094 L 483.359375 419.621094 L 483.359375 483.371094 L 419.628906 483.371094 Z M 419.628906 419.621094 " clip-rule="nonzero"/></clipPath><clipPath id="690a13d945"><path d="M 475.859375 483.371094 L 427.148438 483.371094 C 425.160156 483.371094 423.253906 482.582031 421.847656 481.175781 C 420.441406 479.769531 419.648438 477.859375 419.648438 475.871094 L 419.648438 427.121094 C 419.648438 425.132812 420.441406 423.222656 421.847656 421.816406 C 423.253906 420.410156 425.160156 419.621094 427.148438 419.621094 L 475.859375 419.621094 C 477.847656 419.621094 479.753906 420.410156 481.160156 421.816406 C 482.566406 423.222656 483.359375 425.132812 483.359375 427.121094 L 483.359375 475.871094 C 483.359375 477.859375 482.566406 479.769531 481.160156 481.175781 C 479.753906 482.582031 477.847656 483.371094 475.859375 483.371094 Z M 475.859375 483.371094 " clip-rule="nonzero"/></clipPath><clipPath id="8df3767a6d"><path d="M 487.179688 419.371094 L 551 419.371094 L 551 483.578125 L 487.179688 483.578125 Z M 487.179688 419.371094 " clip-rule="nonzero"/></clipPath><clipPath id="5d0e013ae5"><path d="M 543.386719 483.371094 L 494.679688 483.371094 C 492.691406 483.371094 490.78125 482.582031 489.375 481.175781 C 487.96875 479.769531 487.179688 477.859375 487.179688 475.871094 L 487.179688 427.121094 C 487.179688 425.132812 487.96875 423.222656 489.375 421.816406 C 490.78125 420.410156 492.691406 419.621094 494.679688 419.621094 L 543.386719 419.621094 C 545.375 419.621094 547.285156 420.410156 548.691406 421.816406 C 550.097656 423.222656 550.886719 425.132812 550.886719 427.121094 L 550.886719 475.871094 C 550.886719 477.859375 550.097656 479.769531 548.691406 481.175781 C 547.285156 482.582031 545.375 483.371094 543.386719 483.371094 Z M 543.386719 483.371094 " clip-rule="nonzero"/></clipPath><clipPath id="0875a049a0"><path d="M 0.179688 0.519531 L 64 0.519531 L 64 64.578125 L 0.179688 64.578125 Z M 0.179688 0.519531 " clip-rule="nonzero"/></clipPath><clipPath id="ce342941bc"><path d="M 56.386719 64.371094 L 7.679688 64.371094 C 5.691406 64.371094 3.78125 63.582031 2.375 62.175781 C 0.96875 60.769531 0.179688 58.859375 0.179688 56.871094 L 0.179688 8.121094 C 0.179688 6.132812 0.96875 4.222656 2.375 2.816406 C 3.78125 1.410156 5.691406 0.621094 7.679688 0.621094 L 56.386719 0.621094 C 58.375 0.621094 60.285156 1.410156 61.691406 2.816406 C 63.097656 4.222656 63.886719 6.132812 63.886719 8.121094 L 63.886719 56.871094 C 63.886719 58.859375 63.097656 60.769531 61.691406 62.175781 C 60.285156 63.582031 58.375 64.371094 56.386719 64.371094 Z M 56.386719 64.371094 " clip-rule="nonzero"/></clipPath><clipPath id="6029a15ae6"><rect x="0" width="64" y="0" height="65"/></clipPath><clipPath id="c8c44dea59"><path d="M 487.136719 419.621094 L 550.867188 419.621094 L 550.867188 483.371094 L 487.136719 483.371094 Z M 487.136719 419.621094 " clip-rule="nonzero"/></clipPath><clipPath id="1ac3e1e7b0"><path d="M 543.367188 483.371094 L 494.660156 483.371094 C 492.667969 483.371094 490.761719 482.582031 489.355469 481.175781 C 487.949219 479.769531 487.160156 477.859375 487.160156 475.871094 L 487.160156 427.121094 C 487.160156 425.132812 487.949219 423.222656 489.355469 421.816406 C 490.761719 420.410156 492.667969 419.621094 494.660156 419.621094 L 543.367188 419.621094 C 545.355469 419.621094 547.261719 420.410156 548.667969 421.816406 C 550.074219 423.222656 550.867188 425.132812 550.867188 427.121094 L 550.867188 475.871094 C 550.867188 477.859375 550.074219 479.769531 548.667969 481.175781 C 547.261719 482.582031 545.355469 483.371094 543.367188 483.371094 Z M 543.367188 483.371094 " clip-rule="nonzero"/></clipPath><clipPath id="a2cb46c2e0"><path d="M 419.671875 284.371094 L 483.628906 284.371094 L 483.628906 348.578125 L 419.671875 348.578125 Z M 419.671875 284.371094 " clip-rule="nonzero"/></clipPath><clipPath id="dff1815743"><path d="M 475.878906 348.371094 L 427.171875 348.371094 C 425.183594 348.371094 423.273438 347.582031 421.867188 346.175781 C 420.460938 344.769531 419.671875 342.859375 419.671875 340.871094 L 419.671875 292.121094 C 419.671875 290.132812 420.460938 288.222656 421.867188 286.816406 C 423.273438 285.410156 425.183594 284.621094 427.171875 284.621094 L 475.878906 284.621094 C 477.867188 284.621094 479.777344 285.410156 481.183594 286.816406 C 482.589844 288.222656 483.378906 290.132812 483.378906 292.121094 L 483.378906 340.871094 C 483.378906 342.859375 482.589844 344.769531 481.183594 346.175781 C 479.777344 347.582031 477.867188 348.371094 475.878906 348.371094 Z M 475.878906 348.371094 " clip-rule="nonzero"/></clipPath><clipPath id="3c679a360d"><path d="M 0.671875 0.398438 L 64.601562 0.398438 L 64.601562 64.480469 L 0.671875 64.480469 Z M 0.671875 0.398438 " clip-rule="nonzero"/></clipPath><clipPath id="9b0f68efc0"><path d="M 56.878906 64.371094 L 8.171875 64.371094 C 6.183594 64.371094 4.273438 63.582031 2.867188 62.175781 C 1.460938 60.769531 0.671875 58.859375 0.671875 56.871094 L 0.671875 8.121094 C 0.671875 6.132812 1.460938 4.222656 2.867188 2.816406 C 4.273438 1.410156 6.183594 0.621094 8.171875 0.621094 L 56.878906 0.621094 C 58.867188 0.621094 60.777344 1.410156 62.183594 2.816406 C 63.589844 4.222656 64.378906 6.132812 64.378906 8.121094 L 64.378906 56.871094 C 64.378906 58.859375 63.589844 60.769531 62.183594 62.175781 C 60.777344 63.582031 58.867188 64.371094 56.878906 64.371094 Z M 56.878906 64.371094 " clip-rule="nonzero"/></clipPath><clipPath id="99e3bf99d1"><rect x="0" width="65" y="0" height="65"/></clipPath><clipPath id="21cfc38705"><path d="M 419.628906 284.621094 L 483.359375 284.621094 L 483.359375 348.371094 L 419.628906 348.371094 Z M 419.628906 284.621094 " clip-rule="nonzero"/></clipPath><clipPath id="541ac4ad0d"><path d="M 475.859375 348.371094 L 427.148438 348.371094 C 425.160156 348.371094 423.253906 347.582031 421.847656 346.175781 C 420.441406 344.769531 419.648438 342.859375 419.648438 340.871094 L 419.648438 292.121094 C 419.648438 290.132812 420.441406 288.222656 421.847656 286.816406 C 423.253906 285.410156 425.160156 284.621094 427.148438 284.621094 L 475.859375 284.621094 C 477.847656 284.621094 479.753906 285.410156 481.160156 286.816406 C 482.566406 288.222656 483.359375 290.132812 483.359375 292.121094 L 483.359375 340.871094 C 483.359375 342.859375 482.566406 344.769531 481.160156 346.175781 C 479.753906 347.582031 477.847656 348.371094 475.859375 348.371094 Z M 475.859375 348.371094 " clip-rule="nonzero"/></clipPath><clipPath id="f0ec365ce6"><path d="M 487.179688 284.371094 L 551 284.371094 L 551 348.578125 L 487.179688 348.578125 Z M 487.179688 284.371094 " clip-rule="nonzero"/></clipPath><clipPath id="cacf3936b7"><path d="M 543.386719 348.371094 L 494.679688 348.371094 C 492.691406 348.371094 490.78125 347.582031 489.375 346.175781 C 487.96875 344.769531 487.179688 342.859375 487.179688 340.871094 L 487.179688 292.121094 C 487.179688 290.132812 487.96875 288.222656 489.375 286.816406 C 490.78125 285.410156 492.691406 284.621094 494.679688 284.621094 L 543.386719 284.621094 C 545.375 284.621094 547.285156 285.410156 548.691406 286.816406 C 550.097656 288.222656 550.886719 290.132812 550.886719 292.121094 L 550.886719 340.871094 C 550.886719 342.859375 550.097656 344.769531 548.691406 346.175781 C 547.285156 347.582031 545.375 348.371094 543.386719 348.371094 Z M 543.386719 348.371094 " clip-rule="nonzero"/></clipPath><clipPath id="5486c0ec20"><path d="M 0.179688 0.398438 L 64 0.398438 L 64 64.480469 L 0.179688 64.480469 Z M 0.179688 0.398438 " clip-rule="nonzero"/></clipPath><clipPath id="254c43cfac"><path d="M 56.386719 64.371094 L 7.679688 64.371094 C 5.691406 64.371094 3.78125 63.582031 2.375 62.175781 C 0.96875 60.769531 0.179688 58.859375 0.179688 56.871094 L 0.179688 8.121094 C 0.179688 6.132812 0.96875 4.222656 2.375 2.816406 C 3.78125 1.410156 5.691406 0.621094 7.679688 0.621094 L 56.386719 0.621094 C 58.375 0.621094 60.285156 1.410156 61.691406 2.816406 C 63.097656 4.222656 63.886719 6.132812 63.886719 8.121094 L 63.886719 56.871094 C 63.886719 58.859375 63.097656 60.769531 61.691406 62.175781 C 60.285156 63.582031 58.375 64.371094 56.386719 64.371094 Z M 56.386719 64.371094 " clip-rule="nonzero"/></clipPath><clipPath id="3cf52a5dc0"><rect x="0" width="64" y="0" height="65"/></clipPath><clipPath id="a112763abf"><path d="M 487.136719 284.621094 L 550.867188 284.621094 L 550.867188 348.371094 L 487.136719 348.371094 Z M 487.136719 284.621094 " clip-rule="nonzero"/></clipPath><clipPath id="c695e67a2a"><path d="M 543.367188 348.371094 L 494.660156 348.371094 C 492.667969 348.371094 490.761719 347.582031 489.355469 346.175781 C 487.949219 344.769531 487.160156 342.859375 487.160156 340.871094 L 487.160156 292.121094 C 487.160156 290.132812 487.949219 288.222656 489.355469 286.816406 C 490.761719 285.410156 492.667969 284.621094 494.660156 284.621094 L 543.367188 284.621094 C 545.355469 284.621094 547.261719 285.410156 548.667969 286.816406 C 550.074219 288.222656 550.867188 290.132812 550.867188 292.121094 L 550.867188 340.871094 C 550.867188 342.859375 550.074219 344.769531 548.667969 346.175781 C 547.261719 347.582031 545.355469 348.371094 543.367188 348.371094 Z M 543.367188 348.371094 " clip-rule="nonzero"/></clipPath><clipPath id="967512903d"><path d="M 554.6875 352 L 618.644531 352 L 618.644531 416 L 554.6875 416 Z M 554.6875 352 " clip-rule="nonzero"/></clipPath><clipPath id="3f5aaef15b"><path d="M 610.894531 415.871094 L 562.1875 415.871094 C 560.199219 415.871094 558.292969 415.082031 556.886719 413.675781 C 555.476562 412.269531 554.6875 410.359375 554.6875 408.371094 L 554.6875 359.621094 C 554.6875 357.632812 555.476562 355.722656 556.886719 354.316406 C 558.292969 352.910156 560.199219 352.121094 562.1875 352.121094 L 610.894531 352.121094 C 612.886719 352.121094 614.792969 352.910156 616.199219 354.316406 C 617.605469 355.722656 618.394531 357.632812 618.394531 359.621094 L 618.394531 408.371094 C 618.394531 410.359375 617.605469 412.269531 616.199219 413.675781 C 614.792969 415.082031 612.886719 415.871094 610.894531 415.871094 Z M 610.894531 415.871094 " clip-rule="nonzero"/></clipPath><clipPath id="cf80756c92"><path d="M 0.6875 0.078125 L 64.480469 0.078125 L 64.480469 63.921875 L 0.6875 63.921875 Z M 0.6875 0.078125 " clip-rule="nonzero"/></clipPath><clipPath id="af40ece1d3"><path d="M 56.894531 63.871094 L 8.1875 63.871094 C 6.199219 63.871094 4.292969 63.082031 2.886719 61.675781 C 1.476562 60.269531 0.6875 58.359375 0.6875 56.371094 L 0.6875 7.621094 C 0.6875 5.632812 1.476562 3.722656 2.886719 2.316406 C 4.292969 0.910156 6.199219 0.121094 8.1875 0.121094 L 56.894531 0.121094 C 58.886719 0.121094 60.792969 0.910156 62.199219 2.316406 C 63.605469 3.722656 64.394531 5.632812 64.394531 7.621094 L 64.394531 56.371094 C 64.394531 58.359375 63.605469 60.269531 62.199219 61.675781 C 60.792969 63.082031 58.886719 63.871094 56.894531 63.871094 Z M 56.894531 63.871094 " clip-rule="nonzero"/></clipPath><clipPath id="53214dbcfa"><rect x="0" width="65" y="0" height="64"/></clipPath><clipPath id="4e634e1a2b"><path d="M 554.644531 352.121094 L 618.375 352.121094 L 618.375 415.871094 L 554.644531 415.871094 Z M 554.644531 352.121094 " clip-rule="nonzero"/></clipPath><clipPath id="e06b481fce"><path d="M 610.875 415.871094 L 562.167969 415.871094 C 560.179688 415.871094 558.269531 415.082031 556.863281 413.675781 C 555.457031 412.269531 554.667969 410.359375 554.667969 408.371094 L 554.667969 359.621094 C 554.667969 357.632812 555.457031 355.722656 556.863281 354.316406 C 558.269531 352.910156 560.179688 352.121094 562.167969 352.121094 L 610.875 352.121094 C 612.863281 352.121094 614.769531 352.910156 616.179688 354.316406 C 617.585938 355.722656 618.375 357.632812 618.375 359.621094 L 618.375 408.371094 C 618.375 410.359375 617.585938 412.269531 616.179688 413.675781 C 614.769531 415.082031 612.863281 415.871094 610.875 415.871094 Z M 610.875 415.871094 " clip-rule="nonzero"/></clipPath><clipPath id="64e12b7740"><path d="M 554.6875 487 L 618.644531 487 L 618.644531 551 L 554.6875 551 Z M 554.6875 487 " clip-rule="nonzero"/></clipPath><clipPath id="c64b54ab60"><path d="M 610.894531 550.871094 L 562.1875 550.871094 C 560.199219 550.871094 558.292969 550.082031 556.886719 548.675781 C 555.476562 547.269531 554.6875 545.359375 554.6875 543.371094 L 554.6875 494.621094 C 554.6875 492.632812 555.476562 490.722656 556.886719 489.316406 C 558.292969 487.910156 560.199219 487.121094 562.1875 487.121094 L 610.894531 487.121094 C 612.886719 487.121094 614.792969 487.910156 616.199219 489.316406 C 617.605469 490.722656 618.394531 492.632812 618.394531 494.621094 L 618.394531 543.371094 C 618.394531 545.359375 617.605469 547.269531 616.199219 548.675781 C 614.792969 550.082031 612.886719 550.871094 610.894531 550.871094 Z M 610.894531 550.871094 " clip-rule="nonzero"/></clipPath><clipPath id="e68382315f"><path d="M 0.6875 0 L 64.480469 0 L 64.480469 64 L 0.6875 64 Z M 0.6875 0 " clip-rule="nonzero"/></clipPath><clipPath id="96862e3c72"><path d="M 56.894531 63.871094 L 8.1875 63.871094 C 6.199219 63.871094 4.292969 63.082031 2.886719 61.675781 C 1.476562 60.269531 0.6875 58.359375 0.6875 56.371094 L 0.6875 7.621094 C 0.6875 5.632812 1.476562 3.722656 2.886719 2.316406 C 4.292969 0.910156 6.199219 0.121094 8.1875 0.121094 L 56.894531 0.121094 C 58.886719 0.121094 60.792969 0.910156 62.199219 2.316406 C 63.605469 3.722656 64.394531 5.632812 64.394531 7.621094 L 64.394531 56.371094 C 64.394531 58.359375 63.605469 60.269531 62.199219 61.675781 C 60.792969 63.082031 58.886719 63.871094 56.894531 63.871094 Z M 56.894531 63.871094 " clip-rule="nonzero"/></clipPath><clipPath id="219a5f2bd9"><rect x="0" width="65" y="0" height="64"/></clipPath><clipPath id="1e5936cd92"><path d="M 554.644531 487.121094 L 618.375 487.121094 L 618.375 550.871094 L 554.644531 550.871094 Z M 554.644531 487.121094 " clip-rule="nonzero"/></clipPath><clipPath id="237f144cb9"><path d="M 610.875 550.871094 L 562.167969 550.871094 C 560.179688 550.871094 558.269531 550.082031 556.863281 548.675781 C 555.457031 547.269531 554.667969 545.359375 554.667969 543.371094 L 554.667969 494.621094 C 554.667969 492.632812 555.457031 490.722656 556.863281 489.316406 C 558.269531 487.910156 560.179688 487.121094 562.167969 487.121094 L 610.875 487.121094 C 612.863281 487.121094 614.769531 487.910156 616.179688 489.316406 C 617.585938 490.722656 618.375 492.632812 618.375 494.621094 L 618.375 543.371094 C 618.375 545.359375 617.585938 547.269531 616.179688 548.675781 C 614.769531 550.082031 612.863281 550.871094 610.875 550.871094 Z M 610.875 550.871094 " clip-rule="nonzero"/></clipPath><clipPath id="186703d53f"><path d="M 554.6875 554.371094 L 618.644531 554.371094 L 618.644531 618.578125 L 554.6875 618.578125 Z M 554.6875 554.371094 " clip-rule="nonzero"/></clipPath><clipPath id="d15b5f8b5b"><path d="M 610.894531 618.371094 L 562.1875 618.371094 C 560.199219 618.371094 558.292969 617.582031 556.886719 616.175781 C 555.476562 614.769531 554.6875 612.859375 554.6875 610.871094 L 554.6875 562.121094 C 554.6875 560.132812 555.476562 558.222656 556.886719 556.816406 C 558.292969 555.410156 560.199219 554.621094 562.1875 554.621094 L 610.894531 554.621094 C 612.886719 554.621094 614.792969 555.410156 616.199219 556.816406 C 617.605469 558.222656 618.394531 560.132812 618.394531 562.121094 L 618.394531 610.871094 C 618.394531 612.859375 617.605469 614.769531 616.199219 616.175781 C 614.792969 617.582031 612.886719 618.371094 610.894531 618.371094 Z M 610.894531 618.371094 " clip-rule="nonzero"/></clipPath><clipPath id="b07e262617"><path d="M 0.6875 0.398438 L 64.480469 0.398438 L 64.480469 64.480469 L 0.6875 64.480469 Z M 0.6875 0.398438 " clip-rule="nonzero"/></clipPath><clipPath id="ed59e4a709"><path d="M 56.894531 64.371094 L 8.1875 64.371094 C 6.199219 64.371094 4.292969 63.582031 2.886719 62.175781 C 1.476562 60.769531 0.6875 58.859375 0.6875 56.871094 L 0.6875 8.121094 C 0.6875 6.132812 1.476562 4.222656 2.886719 2.816406 C 4.292969 1.410156 6.199219 0.621094 8.1875 0.621094 L 56.894531 0.621094 C 58.886719 0.621094 60.792969 1.410156 62.199219 2.816406 C 63.605469 4.222656 64.394531 6.132812 64.394531 8.121094 L 64.394531 56.871094 C 64.394531 58.859375 63.605469 60.769531 62.199219 62.175781 C 60.792969 63.582031 58.886719 64.371094 56.894531 64.371094 Z M 56.894531 64.371094 " clip-rule="nonzero"/></clipPath><clipPath id="9679ea724a"><rect x="0" width="65" y="0" height="65"/></clipPath><clipPath id="60824cdf5d"><path d="M 554.644531 554.621094 L 618.375 554.621094 L 618.375 618.371094 L 554.644531 618.371094 Z M 554.644531 554.621094 " clip-rule="nonzero"/></clipPath><clipPath id="fddff2cd7d"><path d="M 610.875 618.371094 L 562.167969 618.371094 C 560.179688 618.371094 558.269531 617.582031 556.863281 616.175781 C 555.457031 614.769531 554.667969 612.859375 554.667969 610.871094 L 554.667969 562.121094 C 554.667969 560.132812 555.457031 558.222656 556.863281 556.816406 C 558.269531 555.410156 560.179688 554.621094 562.167969 554.621094 L 610.875 554.621094 C 612.863281 554.621094 614.769531 555.410156 616.179688 556.816406 C 617.585938 558.222656 618.375 560.132812 618.375 562.121094 L 618.375 610.871094 C 618.375 612.859375 617.585938 614.769531 616.179688 616.175781 C 614.769531 617.582031 612.863281 618.371094 610.875 618.371094 Z M 610.875 618.371094 " clip-rule="nonzero"/></clipPath><clipPath id="2959f9fb0d"><path d="M 352.117188 154 L 411.632812 154 L 411.632812 213.375 L 352.117188 213.375 Z M 352.117188 154 " clip-rule="nonzero"/></clipPath><clipPath id="4a993ded5e"><path d="M 408.367188 213.375 L 359.617188 213.375 C 355.472656 213.375 352.117188 210.015625 352.117188 205.875 L 352.117188 157.125 C 352.117188 155.867188 352.875 154.734375 354.035156 154.253906 C 355.195312 153.773438 356.53125 154.039062 357.421875 154.929688 L 410.5625 208.070312 C 411.453125 208.960938 411.71875 210.296875 411.238281 211.457031 C 410.757812 212.617188 409.625 213.375 408.367188 213.375 Z M 408.367188 213.375 " clip-rule="nonzero"/></clipPath><clipPath id="c70097c453"><path d="M 0.117188 0 L 59.632812 0 L 59.632812 59.375 L 0.117188 59.375 Z M 0.117188 0 " clip-rule="nonzero"/></clipPath><clipPath id="8619033e57"><path d="M 56.367188 59.375 L 7.617188 59.375 C 3.472656 59.375 0.117188 56.015625 0.117188 51.875 L 0.117188 3.125 C 0.117188 1.867188 0.875 0.734375 2.035156 0.253906 C 3.195312 -0.226562 4.53125 0.0390625 5.421875 0.929688 L 58.5625 54.070312 C 59.453125 54.960938 59.71875 56.296875 59.238281 57.457031 C 58.757812 58.617188 57.625 59.375 56.367188 59.375 Z M 56.367188 59.375 " clip-rule="nonzero"/></clipPath><clipPath id="e6f4846045"><rect x="0" width="60" y="0" height="60"/></clipPath><clipPath id="d1fe513a9c"><path d="M 352.117188 154 L 412 154 L 412 213.375 L 352.117188 213.375 Z M 352.117188 154 " clip-rule="nonzero"/></clipPath><clipPath id="d8de844eb3"><path d="M 408.367188 213.375 L 359.617188 213.375 C 355.472656 213.375 352.117188 210.015625 352.117188 205.875 L 352.117188 157.125 C 352.117188 155.867188 352.875 154.734375 354.035156 154.253906 C 355.195312 153.773438 356.53125 154.039062 357.421875 154.929688 L 410.5625 208.070312 C 411.453125 208.960938 411.71875 210.296875 411.238281 211.457031 C 410.757812 212.617188 409.625 213.375 408.367188 213.375 Z M 408.367188 213.375 " clip-rule="nonzero"/></clipPath><clipPath id="7bcb49b85d"><path d="M 554.648438 289 L 614.167969 289 L 614.167969 348.375 L 554.648438 348.375 Z M 554.648438 289 " clip-rule="nonzero"/></clipPath><clipPath id="836455dfe4"><path d="M 610.898438 348.375 L 562.148438 348.375 C 558.007812 348.375 554.648438 345.015625 554.648438 340.875 L 554.648438 292.125 C 554.648438 290.867188 555.40625 289.734375 556.566406 289.253906 C 557.726562 288.773438 559.066406 289.039062 559.953125 289.929688 L 613.097656 343.070312 C 613.984375 343.960938 614.25 345.296875 613.769531 346.457031 C 613.289062 347.617188 612.15625 348.375 610.898438 348.375 Z M 610.898438 348.375 " clip-rule="nonzero"/></clipPath><clipPath id="1cc938d5f2"><path d="M 0.648438 0 L 60.167969 0 L 60.167969 59.375 L 0.648438 59.375 Z M 0.648438 0 " clip-rule="nonzero"/></clipPath><clipPath id="d5ab5e54a7"><path d="M 56.898438 59.375 L 8.148438 59.375 C 4.007812 59.375 0.648438 56.015625 0.648438 51.875 L 0.648438 3.125 C 0.648438 1.867188 1.40625 0.734375 2.566406 0.253906 C 3.726562 -0.226562 5.066406 0.0390625 5.953125 0.929688 L 59.097656 54.070312 C 59.984375 54.960938 60.25 56.296875 59.769531 57.457031 C 59.289062 58.617188 58.15625 59.375 56.898438 59.375 Z M 56.898438 59.375 " clip-rule="nonzero"/></clipPath><clipPath id="85a42faae3"><rect x="0" width="61" y="0" height="60"/></clipPath><clipPath id="6c74c3e4c7"><path d="M 554.648438 289 L 615 289 L 615 348.375 L 554.648438 348.375 Z M 554.648438 289 " clip-rule="nonzero"/></clipPath><clipPath id="1be447f89d"><path d="M 610.898438 348.375 L 562.148438 348.375 C 558.007812 348.375 554.648438 345.015625 554.648438 340.875 L 554.648438 292.125 C 554.648438 290.867188 555.40625 289.734375 556.566406 289.253906 C 557.726562 288.773438 559.066406 289.039062 559.953125 289.929688 L 613.097656 343.070312 C 613.984375 343.960938 614.25 345.296875 613.769531 346.457031 C 613.289062 347.617188 612.15625 348.375 610.898438 348.375 Z M 610.898438 348.375 " clip-rule="nonzero"/></clipPath><clipPath id="991914ba0d"><path d="M 554.648438 424 L 614.167969 424 L 614.167969 483.375 L 554.648438 483.375 Z M 554.648438 424 " clip-rule="nonzero"/></clipPath><clipPath id="d64c0f718c"><path d="M 610.898438 483.375 L 562.148438 483.375 C 558.007812 483.375 554.648438 480.015625 554.648438 475.875 L 554.648438 427.125 C 554.648438 425.867188 555.40625 424.734375 556.566406 424.253906 C 557.726562 423.773438 559.066406 424.039062 559.953125 424.929688 L 613.097656 478.070312 C 613.984375 478.960938 614.25 480.296875 613.769531 481.457031 C 613.289062 482.617188 612.15625 483.375 610.898438 483.375 Z M 610.898438 483.375 " clip-rule="nonzero"/></clipPath><clipPath id="0cb34b0792"><path d="M 0.648438 0 L 60.167969 0 L 60.167969 59.375 L 0.648438 59.375 Z M 0.648438 0 " clip-rule="nonzero"/></clipPath><clipPath id="4f9475a121"><path d="M 56.898438 59.375 L 8.148438 59.375 C 4.007812 59.375 0.648438 56.015625 0.648438 51.875 L 0.648438 3.125 C 0.648438 1.867188 1.40625 0.734375 2.566406 0.253906 C 3.726562 -0.226562 5.066406 0.0390625 5.953125 0.929688 L 59.097656 54.070312 C 59.984375 54.960938 60.25 56.296875 59.769531 57.457031 C 59.289062 58.617188 58.15625 59.375 56.898438 59.375 Z M 56.898438 59.375 " clip-rule="nonzero"/></clipPath><clipPath id="19390f191c"><rect x="0" width="61" y="0" height="60"/></clipPath><clipPath id="8523190a70"><path d="M 554.648438 424 L 615 424 L 615 483.375 L 554.648438 483.375 Z M 554.648438 424 " clip-rule="nonzero"/></clipPath><clipPath id="1b24102fff"><path d="M 610.898438 483.375 L 562.148438 483.375 C 558.007812 483.375 554.648438 480.015625 554.648438 475.875 L 554.648438 427.125 C 554.648438 425.867188 555.40625 424.734375 556.566406 424.253906 C 557.726562 423.773438 559.066406 424.039062 559.953125 424.929688 L 613.097656 478.070312 C 613.984375 478.960938 614.25 480.296875 613.769531 481.457031 C 613.289062 482.617188 612.15625 483.375 610.898438 483.375 Z M 610.898438 483.375 " clip-rule="nonzero"/></clipPath></defs><g clip-path="url(#61fc3d4209)"><g clip-path="url(#e12502c9ca)"><g transform="matrix(1, 0, 0, 1, 149, 149)"><g clip-path="url(#c35bfca133)"><g clip-path="url(#dba8248cd4)"><g clip-path="url(#f9d63a6c38)"><path fill="#ffffff" d="M 64.355469 0.621094 L 64.355469 64.328125 L 0.648438 64.328125 L 0.648438 0.621094 Z M 64.355469 0.621094 " fill-opacity="1" fill-rule="nonzero"/></g></g></g></g></g></g><g clip-path="url(#dba2f44dfc)"><g clip-path="url(#f62e92d067)"><path stroke-linecap="butt" transform="matrix(0, 0.75, -0.75, 0, 213.35428, 149.620868)" fill="none" stroke-linejoin="miter" d="M 85.000305 10.029666 L 85.000305 74.972378 C 85.000305 77.623419 83.948222 80.165086 82.073222 82.045295 C 80.198222 83.920295 77.651347 84.972378 75.000305 84.972378 L 10.000302 84.972378 C 7.34926 84.972378 4.802385 83.920295 2.927385 82.045295 C 1.052385 80.165086 0.000301271 77.623419 0.000301271 74.972378 L 0.000301271 10.029666 C 0.000301271 7.378624 1.052385 4.831749 2.927385 2.956749 C 4.802385 1.081749 7.34926 0.0296656 10.000302 0.0296656 L 75.000305 0.0296656 C 77.651347 0.0296656 80.198222 1.081749 82.073222 2.956749 C 83.948222 4.831749 85.000305 7.378624 85.000305 10.029666 Z M 85.000305 10.029666 " stroke="#000000" stroke-width="4" stroke-opacity="1" stroke-miterlimit="4"/></g></g><g clip-path="url(#dd4a8f6228)"><g clip-path="url(#ae437c809c)"><g transform="matrix(1, 0, 0, 1, 149, 217)"><g clip-path="url(#6e660e9c53)"><g clip-path="url(#4ee84e3636)"><g clip-path="url(#c7ebdec87c)"><path fill="#ffffff" d="M 64.355469 0.121094 L 64.355469 63.828125 L 0.648438 63.828125 L 0.648438 0.121094 Z M 64.355469 0.121094 " fill-opacity="1" fill-rule="nonzero"/></g></g></g></g></g></g><g clip-path="url(#c45cce6b6a)"><g clip-path="url(#2685c2cc02)"><path stroke-linecap="butt" transform="matrix(0, 0.75, -0.75, 0, 213.35428, 217.120864)" fill="none" stroke-linejoin="miter" d="M 85.00031 10.029666 L 85.00031 74.972378 C 85.00031 77.623419 83.948227 80.165086 82.073226 82.045295 C 80.198226 83.920295 77.651351 84.972378 75.000309 84.972378 L 10.000306 84.972378 C 7.349264 84.972378 4.802389 83.920295 2.927389 82.045295 C 1.052389 80.165086 0.000305724 77.623419 0.000305724 74.972378 L 0.000305724 10.029666 C 0.000305724 7.378624 1.052389 4.831749 2.927389 2.956749 C 4.802389 1.081749 7.349264 0.0296656 10.000306 0.0296656 L 75.000309 0.0296656 C 77.651351 0.0296656 80.198226 1.081749 82.073226 2.956749 C 83.948227 4.831749 85.00031 7.378624 85.00031 10.029666 Z M 85.00031 10.029666 " stroke="#000000" stroke-width="4" stroke-opacity="1" stroke-miterlimit="4"/></g></g><g clip-path="url(#67000c150b)"><g clip-path="url(#4790faff7d)"><g transform="matrix(1, 0, 0, 1, 149, 284)"><g clip-path="url(#34cf7a6ec5)"><g clip-path="url(#06e77adb46)"><g clip-path="url(#0070599b02)"><path fill="#ffffff" d="M 64.355469 0.621094 L 64.355469 64.328125 L 0.648438 64.328125 L 0.648438 0.621094 Z M 64.355469 0.621094 " fill-opacity="1" fill-rule="nonzero"/></g></g></g></g></g></g><g clip-path="url(#a4f5ea05d0)"><g clip-path="url(#efd0610ede)"><path stroke-linecap="butt" transform="matrix(0, 0.75, -0.75, 0, 213.35428, 284.620876)" fill="none" stroke-linejoin="miter" d="M 85.000295 10.029666 L 85.000295 74.972378 C 85.000295 77.623419 83.948212 80.165086 82.073212 82.045295 C 80.198212 83.920295 77.651336 84.972378 75.000295 84.972378 L 10.000291 84.972378 C 7.34925 84.972378 4.802375 83.920295 2.927374 82.045295 C 1.052374 80.165086 0.000290977 77.623419 0.000290977 74.972378 L 0.000290977 10.029666 C 0.000290977 7.378624 1.052374 4.831749 2.927374 2.956749 C 4.802375 1.081749 7.34925 0.0296656 10.000291 0.0296656 L 75.000295 0.0296656 C 77.651336 0.0296656 80.198212 1.081749 82.073212 2.956749 C 83.948212 4.831749 85.000295 7.378624 85.000295 10.029666 Z M 85.000295 10.029666 " stroke="#000000" stroke-width="4" stroke-opacity="1" stroke-miterlimit="4"/></g></g><g clip-path="url(#3f3ef4581e)"><g clip-path="url(#e75ad4a258)"><g transform="matrix(1, 0, 0, 1, 149, 352)"><g clip-path="url(#c7153a6861)"><g clip-path="url(#a5d9ec2bb5)"><g clip-path="url(#5bb40e2836)"><path fill="#ffffff" d="M 64.355469 0.121094 L 64.355469 63.828125 L 0.648438 63.828125 L 0.648438 0.121094 Z M 64.355469 0.121094 " fill-opacity="1" fill-rule="nonzero"/></g></g></g></g></g></g><g clip-path="url(#35eeb9f72f)"><g clip-path="url(#7cfcaa0fac)"><path stroke-linecap="butt" transform="matrix(0, 0.75, -0.75, 0, 213.35428, 352.120872)" fill="none" stroke-linejoin="miter" d="M 85.0003 10.029666 L 85.0003 74.972378 C 85.0003 77.623419 83.948216 80.165086 82.073216 82.045295 C 80.198216 83.920295 77.651341 84.972378 75.000299 84.972378 L 10.000296 84.972378 C 7.349254 84.972378 4.802379 83.920295 2.927379 82.045295 C 1.052379 80.165086 0.00029543 77.623419 0.00029543 74.972378 L 0.00029543 10.029666 C 0.00029543 7.378624 1.052379 4.831749 2.927379 2.956749 C 4.802379 1.081749 7.349254 0.0296656 10.000296 0.0296656 L 75.000299 0.0296656 C 77.651341 0.0296656 80.198216 1.081749 82.073216 2.956749 C 83.948216 4.831749 85.0003 7.378624 85.0003 10.029666 Z M 85.0003 10.029666 " stroke="#000000" stroke-width="4" stroke-opacity="1" stroke-miterlimit="4"/></g></g><g clip-path="url(#724697762c)"><g clip-path="url(#e947a1c481)"><g transform="matrix(1, 0, 0, 1, 149, 419)"><g clip-path="url(#6746d0c6a7)"><g clip-path="url(#e7891c5491)"><g clip-path="url(#4ef8f04fd5)"><path fill="#ffffff" d="M 64.355469 0.621094 L 64.355469 64.328125 L 0.648438 64.328125 L 0.648438 0.621094 Z M 64.355469 0.621094 " fill-opacity="1" fill-rule="nonzero"/></g></g></g></g></g></g><g clip-path="url(#c7bb971b70)"><g clip-path="url(#bb378cd875)"><path stroke-linecap="butt" transform="matrix(0, 0.75, -0.75, 0, 213.35428, 419.620871)" fill="none" stroke-linejoin="miter" d="M 85.000301 10.029666 L 85.000301 74.972378 C 85.000301 77.623419 83.948218 80.165086 82.073217 82.045295 C 80.198217 83.920295 77.651342 84.972378 75.0003 84.972378 L 10.000297 84.972378 C 7.349255 84.972378 4.80238 83.920295 2.92738 82.045295 C 1.05238 80.165086 0.000296683 77.623419 0.000296683 74.972378 L 0.000296683 10.029666 C 0.000296683 7.378624 1.05238 4.831749 2.92738 2.956749 C 4.80238 1.081749 7.349255 0.0296656 10.000297 0.0296656 L 75.0003 0.0296656 C 77.651342 0.0296656 80.198217 1.081749 82.073217 2.956749 C 83.948218 4.831749 85.000301 7.378624 85.000301 10.029666 Z M 85.000301 10.029666 " stroke="#000000" stroke-width="4" stroke-opacity="1" stroke-miterlimit="4"/></g></g><g clip-path="url(#b4e1d381c1)"><g clip-path="url(#c6ee8155e4)"><g transform="matrix(1, 0, 0, 1, 217, 419)"><g clip-path="url(#55200d1acd)"><g clip-path="url(#5545db47c3)"><g clip-path="url(#2a6e90c7be)"><path fill="#ffffff" d="M 63.855469 0.621094 L 63.855469 64.328125 L 0.148438 64.328125 L 0.148438 0.621094 Z M 63.855469 0.621094 " fill-opacity="1" fill-rule="nonzero"/></g></g></g></g></g></g><g clip-path="url(#7dc70fcc33)"><g clip-path="url(#f21f9f235a)"><path stroke-linecap="butt" transform="matrix(0, 0.75, -0.75, 0, 280.854246, 419.620871)" fill="none" stroke-linejoin="miter" d="M 85.000301 10.02962 L 85.000301 74.972332 C 85.000301 77.623373 83.948218 80.16504 82.073217 82.045249 C 80.198217 83.920249 77.651342 84.972332 75.0003 84.972332 L 10.000297 84.972332 C 7.349255 84.972332 4.80238 83.920249 2.92738 82.045249 C 1.05238 80.16504 0.000296683 77.623373 0.000296683 74.972332 L 0.000296683 10.02962 C 0.000296683 7.378578 1.05238 4.831703 2.92738 2.956703 C 4.80238 1.081703 7.349255 0.0296195 10.000297 0.0296195 L 75.0003 0.0296195 C 77.651342 0.0296195 80.198217 1.081703 82.073217 2.956703 C 83.948218 4.831703 85.000301 7.378578 85.000301 10.02962 Z M 85.000301 10.02962 " stroke="#000000" stroke-width="4" stroke-opacity="1" stroke-miterlimit="4"/></g></g><g clip-path="url(#d97948cb7f)"><g clip-path="url(#404099f269)"><g transform="matrix(1, 0, 0, 1, 217, 149)"><g clip-path="url(#719c96ccc0)"><g clip-path="url(#549b352698)"><g clip-path="url(#bbbdac4ac8)"><path fill="#ffffff" d="M 63.855469 0.621094 L 63.855469 64.328125 L 0.148438 64.328125 L 0.148438 0.621094 Z M 63.855469 0.621094 " fill-opacity="1" fill-rule="nonzero"/></g></g></g></g></g></g><g clip-path="url(#4e3cfbf9d2)"><g clip-path="url(#3d037311be)"><path stroke-linecap="butt" transform="matrix(0, 0.75, -0.75, 0, 280.854246, 149.620868)" fill="none" stroke-linejoin="miter" d="M 85.000305 10.02962 L 85.000305 74.972332 C 85.000305 77.623373 83.948222 80.16504 82.073222 82.045249 C 80.198222 83.920249 77.651347 84.972332 75.000305 84.972332 L 10.000302 84.972332 C 7.34926 84.972332 4.802385 83.920249 2.927385 82.045249 C 1.052385 80.16504 0.000301271 77.623373 0.000301271 74.972332 L 0.000301271 10.02962 C 0.000301271 7.378578 1.052385 4.831703 2.927385 2.956703 C 4.802385 1.081703 7.34926 0.0296195 10.000302 0.0296195 L 75.000305 0.0296195 C 77.651347 0.0296195 80.198222 1.081703 82.073222 2.956703 C 83.948222 4.831703 85.000305 7.378578 85.000305 10.02962 Z M 85.000305 10.02962 " stroke="#000000" stroke-width="4" stroke-opacity="1" stroke-miterlimit="4"/></g></g><g clip-path="url(#ad6bdb8df9)"><g clip-path="url(#c3b4ab75d6)"><g transform="matrix(1, 0, 0, 1, 284, 419)"><g clip-path="url(#f0218e5796)"><g clip-path="url(#21b8d426df)"><g clip-path="url(#0623ea6899)"><path fill="#ffffff" d="M 64.363281 0.621094 L 64.363281 64.328125 L 0.65625 64.328125 L 0.65625 0.621094 Z M 64.363281 0.621094 " fill-opacity="1" fill-rule="nonzero"/></g></g></g></g></g></g><g clip-path="url(#21faf68de5)"><g clip-path="url(#f3cdda871f)"><path stroke-linecap="butt" transform="matrix(0, 0.75, -0.75, 0, 348.362535, 419.620871)" fill="none" stroke-linejoin="miter" d="M 85.000301 10.030255 L 85.000301 74.972966 C 85.000301 77.624008 83.948218 80.165675 82.073217 82.040675 C 80.198217 83.915675 77.651342 84.972967 75.0003 84.972967 L 10.000297 84.972967 C 7.349255 84.972967 4.80238 83.915675 2.92738 82.040675 C 1.05238 80.165675 0.000296683 77.624008 0.000296683 74.972966 L 0.000296683 10.030255 C 0.000296683 7.374005 1.05238 4.832338 2.92738 2.957338 C 4.80238 1.082338 7.349255 0.0302544 10.000297 0.0302544 L 75.0003 0.0302544 C 77.651342 0.0302544 80.198217 1.082338 82.073217 2.957338 C 83.948218 4.832338 85.000301 7.374005 85.000301 10.030255 Z M 85.000301 10.030255 " stroke="#000000" stroke-width="4" stroke-opacity="1" stroke-miterlimit="4"/></g></g><g clip-path="url(#7fcc37e1fe)"><g clip-path="url(#54c6b90373)"><g transform="matrix(1, 0, 0, 1, 284, 149)"><g clip-path="url(#d4abfd2380)"><g clip-path="url(#799d611c50)"><g clip-path="url(#9154c184f7)"><path fill="#ffffff" d="M 64.363281 0.621094 L 64.363281 64.328125 L 0.65625 64.328125 L 0.65625 0.621094 Z M 64.363281 0.621094 " fill-opacity="1" fill-rule="nonzero"/></g></g></g></g></g></g><g clip-path="url(#54cebda66f)"><g clip-path="url(#521eaa032a)"><path stroke-linecap="butt" transform="matrix(0, 0.75, -0.75, 0, 348.362535, 149.620868)" fill="none" stroke-linejoin="miter" d="M 85.000305 10.030255 L 85.000305 74.972966 C 85.000305 77.624008 83.948222 80.165675 82.073222 82.040675 C 80.198222 83.915675 77.651347 84.972967 75.000305 84.972967 L 10.000302 84.972967 C 7.34926 84.972967 4.802385 83.915675 2.927385 82.040675 C 1.052385 80.165675 0.000301271 77.624008 0.000301271 74.972966 L 0.000301271 10.030255 C 0.000301271 7.374005 1.052385 4.832338 2.927385 2.957338 C 4.802385 1.082338 7.34926 0.0302544 10.000302 0.0302544 L 75.000305 0.0302544 C 77.651347 0.0302544 80.198222 1.082338 82.073222 2.957338 C 83.948222 4.832338 85.000305 7.374005 85.000305 10.030255 Z M 85.000305 10.030255 " stroke="#000000" stroke-width="4" stroke-opacity="1" stroke-miterlimit="4"/></g></g><g clip-path="url(#9a5f1bd95a)"><g clip-path="url(#796639604e)"><g transform="matrix(1, 0, 0, 1, 352, 419)"><g clip-path="url(#26d3b4c353)"><g clip-path="url(#3840ee8705)"><g clip-path="url(#a2d45d9a52)"><path fill="#ffffff" d="M 63.871094 0.621094 L 63.871094 64.328125 L 0.164062 64.328125 L 0.164062 0.621094 Z M 63.871094 0.621094 " fill-opacity="1" fill-rule="nonzero"/></g></g></g></g></g></g><g clip-path="url(#640ab669a1)"><g clip-path="url(#dd3c6b76fd)"><path stroke-linecap="butt" transform="matrix(0, 0.75, -0.75, 0, 415.87083, 419.620871)" fill="none" stroke-linejoin="miter" d="M 85.000301 10.030899 L 85.000301 74.973611 C 85.000301 77.624653 83.948218 80.16632 82.073217 82.04132 C 80.198217 83.91632 77.651342 84.973611 75.0003 84.973611 L 10.000297 84.973611 C 7.349255 84.973611 4.80238 83.91632 2.92738 82.04132 C 1.05238 80.16632 0.000296683 77.624653 0.000296683 74.973611 L 0.000296683 10.030899 C 0.000296683 7.374649 1.05238 4.832982 2.92738 2.957982 C 4.80238 1.082982 7.349255 0.0308989 10.000297 0.0308989 L 75.0003 0.0308989 C 77.651342 0.0308989 80.198217 1.082982 82.073217 2.957982 C 83.948218 4.832982 85.000301 7.374649 85.000301 10.030899 Z M 85.000301 10.030899 " stroke="#000000" stroke-width="4" stroke-opacity="1" stroke-miterlimit="4"/></g></g><g clip-path="url(#399f64ca08)"><g clip-path="url(#4a48465344)"><g transform="matrix(1, 0, 0, 1, 352, 352)"><g clip-path="url(#891800473b)"><g clip-path="url(#6877e21944)"><g clip-path="url(#eac9d48a96)"><path fill="#ffffff" d="M 63.871094 0.121094 L 63.871094 63.828125 L 0.164062 63.828125 L 0.164062 0.121094 Z M 63.871094 0.121094 " fill-opacity="1" fill-rule="nonzero"/></g></g></g></g></g></g><g clip-path="url(#96c2ba86e4)"><g clip-path="url(#eba4580122)"><path stroke-linecap="butt" transform="matrix(0, 0.75, -0.75, 0, 415.87083, 352.120872)" fill="none" stroke-linejoin="miter" d="M 85.0003 10.030899 L 85.0003 74.973611 C 85.0003 77.624653 83.948216 80.16632 82.073216 82.04132 C 80.198216 83.91632 77.651341 84.973611 75.000299 84.973611 L 10.000296 84.973611 C 7.349254 84.973611 4.802379 83.91632 2.927379 82.04132 C 1.052379 80.16632 0.00029543 77.624653 0.00029543 74.973611 L 0.00029543 10.030899 C 0.00029543 7.374649 1.052379 4.832982 2.927379 2.957982 C 4.802379 1.082982 7.349254 0.0308989 10.000296 0.0308989 L 75.000299 0.0308989 C 77.651341 0.0308989 80.198216 1.082982 82.073216 2.957982 C 83.948216 4.832982 85.0003 7.374649 85.0003 10.030899 Z M 85.0003 10.030899 " stroke="#000000" stroke-width="4" stroke-opacity="1" stroke-miterlimit="4"/></g></g><g clip-path="url(#ba24464520)"><g clip-path="url(#711bfe6f54)"><g transform="matrix(1, 0, 0, 1, 352, 284)"><g clip-path="url(#4cf5666cbb)"><g clip-path="url(#fa8b67f108)"><g clip-path="url(#2c097cf0ed)"><path fill="#ffffff" d="M 63.871094 0.621094 L 63.871094 64.328125 L 0.164062 64.328125 L 0.164062 0.621094 Z M 63.871094 0.621094 " fill-opacity="1" fill-rule="nonzero"/></g></g></g></g></g></g><g clip-path="url(#76486afcf6)"><g clip-path="url(#7442c76800)"><path stroke-linecap="butt" transform="matrix(0, 0.75, -0.75, 0, 415.87083, 284.620876)" fill="none" stroke-linejoin="miter" d="M 85.000295 10.030899 L 85.000295 74.973611 C 85.000295 77.624653 83.948212 80.16632 82.073212 82.04132 C 80.198212 83.91632 77.651336 84.973611 75.000295 84.973611 L 10.000291 84.973611 C 7.34925 84.973611 4.802375 83.91632 2.927374 82.04132 C 1.052374 80.16632 0.000290977 77.624653 0.000290977 74.973611 L 0.000290977 10.030899 C 0.000290977 7.374649 1.052374 4.832982 2.927374 2.957982 C 4.802375 1.082982 7.34925 0.0308989 10.000291 0.0308989 L 75.000295 0.0308989 C 77.651336 0.0308989 80.198212 1.082982 82.073212 2.957982 C 83.948212 4.832982 85.000295 7.374649 85.000295 10.030899 Z M 85.000295 10.030899 " stroke="#000000" stroke-width="4" stroke-opacity="1" stroke-miterlimit="4"/></g></g><g clip-path="url(#2615420ef4)"><g clip-path="url(#919c7c4488)"><g transform="matrix(1, 0, 0, 1, 352, 217)"><g clip-path="url(#565d41679a)"><g clip-path="url(#9156ea81bf)"><g clip-path="url(#c6533d88b1)"><path fill="#ffffff" d="M 63.871094 0.121094 L 63.871094 63.828125 L 0.164062 63.828125 L 0.164062 0.121094 Z M 63.871094 0.121094 " fill-opacity="1" fill-rule="nonzero"/></g></g></g></g></g></g><g clip-path="url(#cecd6bb9b1)"><g clip-path="url(#fd0245cc61)"><path stroke-linecap="butt" transform="matrix(0, 0.75, -0.75, 0, 415.87083, 217.120864)" fill="none" stroke-linejoin="miter" d="M 85.00031 10.030899 L 85.00031 74.973611 C 85.00031 77.624653 83.948227 80.16632 82.073226 82.04132 C 80.198226 83.91632 77.651351 84.973611 75.000309 84.973611 L 10.000306 84.973611 C 7.349264 84.973611 4.802389 83.91632 2.927389 82.04132 C 1.052389 80.16632 0.000305724 77.624653 0.000305724 74.973611 L 0.000305724 10.030899 C 0.000305724 7.374649 1.052389 4.832982 2.927389 2.957982 C 4.802389 1.082982 7.349264 0.0308989 10.000306 0.0308989 L 75.000309 0.0308989 C 77.651351 0.0308989 80.198226 1.082982 82.073226 2.957982 C 83.948227 4.832982 85.00031 7.374649 85.00031 10.030899 Z M 85.00031 10.030899 " stroke="#000000" stroke-width="4" stroke-opacity="1" stroke-miterlimit="4"/></g></g><g clip-path="url(#b737617139)"><g clip-path="url(#94f71c3f45)"><g transform="matrix(1, 0, 0, 1, 352, 487)"><g clip-path="url(#fc991b4afa)"><g clip-path="url(#ff427a9528)"><g clip-path="url(#8b5be24bbd)"><path fill="#ffffff" d="M 63.871094 0.121094 L 63.871094 63.828125 L 0.164062 63.828125 L 0.164062 0.121094 Z M 63.871094 0.121094 " fill-opacity="1" fill-rule="nonzero"/></g></g></g></g></g></g><g clip-path="url(#464e65b40a)"><g clip-path="url(#bac3644de7)"><path stroke-linecap="butt" transform="matrix(0, 0.75, -0.75, 0, 415.87083, 487.120868)" fill="none" stroke-linejoin="miter" d="M 85.000305 10.030899 L 85.000305 74.973611 C 85.000305 77.624653 83.948222 80.16632 82.073222 82.04132 C 80.198222 83.91632 77.651347 84.973611 75.000305 84.973611 L 10.000302 84.973611 C 7.34926 84.973611 4.802385 83.91632 2.927385 82.04132 C 1.052385 80.16632 0.000301136 77.624653 0.000301136 74.973611 L 0.000301136 10.030899 C 0.000301136 7.374649 1.052385 4.832982 2.927385 2.957982 C 4.802385 1.082982 7.34926 0.0308989 10.000302 0.0308989 L 75.000305 0.0308989 C 77.651347 0.0308989 80.198222 1.082982 82.073222 2.957982 C 83.948222 4.832982 85.000305 7.374649 85.000305 10.030899 Z M 85.000305 10.030899 " stroke="#000000" stroke-width="4" stroke-opacity="1" stroke-miterlimit="4"/></g></g><g clip-path="url(#a9c9329368)"><g clip-path="url(#ca7560a56b)"><g transform="matrix(1, 0, 0, 1, 352, 554)"><g clip-path="url(#26f5ae0908)"><g clip-path="url(#4a5a95f9de)"><g clip-path="url(#058ee77905)"><path fill="#ffffff" d="M 63.871094 0.621094 L 63.871094 64.328125 L 0.164062 64.328125 L 0.164062 0.621094 Z M 63.871094 0.621094 " fill-opacity="1" fill-rule="nonzero"/></g></g></g></g></g></g><g clip-path="url(#008ab2ba25)"><g clip-path="url(#5786fac41a)"><path stroke-linecap="butt" transform="matrix(0, 0.75, -0.75, 0, 415.87083, 554.620841)" fill="none" stroke-linejoin="miter" d="M 85.000342 10.030899 L 85.000342 74.973611 C 85.000342 77.624653 83.948258 80.16632 82.073258 82.04132 C 80.198258 83.91632 77.651383 84.973611 75.000341 84.973611 L 10.000338 84.973611 C 7.349296 84.973611 4.802421 83.91632 2.927421 82.04132 C 1.052421 80.16632 0.00033759 77.624653 0.00033759 74.973611 L 0.00033759 10.030899 C 0.00033759 7.374649 1.052421 4.832982 2.927421 2.957982 C 4.802421 1.082982 7.349296 0.0308989 10.000338 0.0308989 L 75.000341 0.0308989 C 77.651383 0.0308989 80.198258 1.082982 82.073258 2.957982 C 83.948258 4.832982 85.000342 7.374649 85.000342 10.030899 Z M 85.000342 10.030899 " stroke="#000000" stroke-width="4" stroke-opacity="1" stroke-miterlimit="4"/></g></g><g clip-path="url(#405498555f)"><g clip-path="url(#4068ad6819)"><g transform="matrix(1, 0, 0, 1, 419, 419)"><g clip-path="url(#9a13c0c1cc)"><g clip-path="url(#d0e958843a)"><g clip-path="url(#947243db67)"><path fill="#ffffff" d="M 64.378906 0.621094 L 64.378906 64.328125 L 0.671875 64.328125 L 0.671875 0.621094 Z M 64.378906 0.621094 " fill-opacity="1" fill-rule="nonzero"/></g></g></g></g></g></g><g clip-path="url(#aaabf30fc8)"><g clip-path="url(#690a13d945)"><path stroke-linecap="butt" transform="matrix(0, 0.75, -0.75, 0, 483.379107, 419.620871)" fill="none" stroke-linejoin="miter" d="M 85.000301 10.02631 L 85.000301 74.97423 C 85.000301 77.625272 83.948218 80.166938 82.073217 82.041939 C 80.198217 83.916939 77.651342 84.97423 75.0003 84.97423 L 10.000297 84.97423 C 7.349255 84.97423 4.80238 83.916939 2.92738 82.041939 C 1.05238 80.166938 0.000296683 77.625272 0.000296683 74.97423 L 0.000296683 10.02631 C 0.000296683 7.375268 1.05238 4.833601 2.92738 2.958601 C 4.80238 1.083601 7.349255 0.0263094 10.000297 0.0263094 L 75.0003 0.0263094 C 77.651342 0.0263094 80.198217 1.083601 82.073217 2.958601 C 83.948218 4.833601 85.000301 7.375268 85.000301 10.02631 Z M 85.000301 10.02631 " stroke="#000000" stroke-width="4" stroke-opacity="1" stroke-miterlimit="4"/></g></g><g clip-path="url(#8df3767a6d)"><g clip-path="url(#5d0e013ae5)"><g transform="matrix(1, 0, 0, 1, 487, 419)"><g clip-path="url(#6029a15ae6)"><g clip-path="url(#0875a049a0)"><g clip-path="url(#ce342941bc)"><path fill="#ffffff" d="M 63.886719 0.621094 L 63.886719 64.328125 L 0.179688 64.328125 L 0.179688 0.621094 Z M 63.886719 0.621094 " fill-opacity="1" fill-rule="nonzero"/></g></g></g></g></g></g><g clip-path="url(#c8c44dea59)"><g clip-path="url(#1ac3e1e7b0)"><path stroke-linecap="butt" transform="matrix(0, 0.75, -0.75, 0, 550.887408, 419.620871)" fill="none" stroke-linejoin="miter" d="M 85.000301 10.026961 L 85.000301 74.969672 C 85.000301 77.625922 83.948218 80.167589 82.073217 82.042589 C 80.198217 83.917589 77.651342 84.969673 75.0003 84.969673 L 10.000297 84.969673 C 7.349255 84.969673 4.80238 83.917589 2.92738 82.042589 C 1.05238 80.167589 0.000296683 77.625922 0.000296683 74.969672 L 0.000296683 10.026961 C 0.000296683 7.375919 1.05238 4.834252 2.92738 2.959252 C 4.80238 1.084252 7.349255 0.0269603 10.000297 0.0269603 L 75.0003 0.0269603 C 77.651342 0.0269603 80.198217 1.084252 82.073217 2.959252 C 83.948218 4.834252 85.000301 7.375919 85.000301 10.026961 Z M 85.000301 10.026961 " stroke="#000000" stroke-width="4" stroke-opacity="1" stroke-miterlimit="4"/></g></g><g clip-path="url(#a2cb46c2e0)"><g clip-path="url(#dff1815743)"><g transform="matrix(1, 0, 0, 1, 419, 284)"><g clip-path="url(#99e3bf99d1)"><g clip-path="url(#3c679a360d)"><g clip-path="url(#9b0f68efc0)"><path fill="#ffffff" d="M 64.378906 0.621094 L 64.378906 64.328125 L 0.671875 64.328125 L 0.671875 0.621094 Z M 64.378906 0.621094 " fill-opacity="1" fill-rule="nonzero"/></g></g></g></g></g></g><g clip-path="url(#21cfc38705)"><g clip-path="url(#541ac4ad0d)"><path stroke-linecap="butt" transform="matrix(0, 0.75, -0.75, 0, 483.379107, 284.620876)" fill="none" stroke-linejoin="miter" d="M 85.000295 10.02631 L 85.000295 74.97423 C 85.000295 77.625272 83.948212 80.166938 82.073212 82.041939 C 80.198212 83.916939 77.651336 84.97423 75.000295 84.97423 L 10.000291 84.97423 C 7.34925 84.97423 4.802375 83.916939 2.927374 82.041939 C 1.052374 80.166938 0.000290977 77.625272 0.000290977 74.97423 L 0.000290977 10.02631 C 0.000290977 7.375268 1.052374 4.833601 2.927374 2.958601 C 4.802375 1.083601 7.34925 0.0263094 10.000291 0.0263094 L 75.000295 0.0263094 C 77.651336 0.0263094 80.198212 1.083601 82.073212 2.958601 C 83.948212 4.833601 85.000295 7.375268 85.000295 10.02631 Z M 85.000295 10.02631 " stroke="#000000" stroke-width="4" stroke-opacity="1" stroke-miterlimit="4"/></g></g><g clip-path="url(#f0ec365ce6)"><g clip-path="url(#cacf3936b7)"><g transform="matrix(1, 0, 0, 1, 487, 284)"><g clip-path="url(#3cf52a5dc0)"><g clip-path="url(#5486c0ec20)"><g clip-path="url(#254c43cfac)"><path fill="#ffffff" d="M 63.886719 0.621094 L 63.886719 64.328125 L 0.179688 64.328125 L 0.179688 0.621094 Z M 63.886719 0.621094 " fill-opacity="1" fill-rule="nonzero"/></g></g></g></g></g></g><g clip-path="url(#a112763abf)"><g clip-path="url(#c695e67a2a)"><path stroke-linecap="butt" transform="matrix(0, 0.75, -0.75, 0, 550.887408, 284.620876)" fill="none" stroke-linejoin="miter" d="M 85.000295 10.026961 L 85.000295 74.969672 C 85.000295 77.625922 83.948212 80.167589 82.073212 82.042589 C 80.198212 83.917589 77.651336 84.969673 75.000295 84.969673 L 10.000291 84.969673 C 7.34925 84.969673 4.802375 83.917589 2.927374 82.042589 C 1.052374 80.167589 0.000290977 77.625922 0.000290977 74.969672 L 0.000290977 10.026961 C 0.000290977 7.375919 1.052374 4.834252 2.927374 2.959252 C 4.802375 1.084252 7.34925 0.0269603 10.000291 0.0269603 L 75.000295 0.0269603 C 77.651336 0.0269603 80.198212 1.084252 82.073212 2.959252 C 83.948212 4.834252 85.000295 7.375919 85.000295 10.026961 Z M 85.000295 10.026961 " stroke="#000000" stroke-width="4" stroke-opacity="1" stroke-miterlimit="4"/></g></g><g clip-path="url(#967512903d)"><g clip-path="url(#3f5aaef15b)"><g transform="matrix(1, 0, 0, 1, 554, 352)"><g clip-path="url(#53214dbcfa)"><g clip-path="url(#cf80756c92)"><g clip-path="url(#af40ece1d3)"><path fill="#ffffff" d="M 64.394531 0.121094 L 64.394531 63.828125 L 0.6875 63.828125 L 0.6875 0.121094 Z M 64.394531 0.121094 " fill-opacity="1" fill-rule="nonzero"/></g></g></g></g></g></g><g clip-path="url(#4e634e1a2b)"><g clip-path="url(#e06b481fce)"><path stroke-linecap="butt" transform="matrix(0, 0.75, -0.75, 0, 618.395708, 352.120872)" fill="none" stroke-linejoin="miter" d="M 85.0003 10.027612 L 85.0003 74.970323 C 85.0003 77.621365 83.948216 80.16824 82.073216 82.04324 C 80.198216 83.91824 77.651341 84.970324 75.000299 84.970324 L 10.000296 84.970324 C 7.349254 84.970324 4.802379 83.91824 2.927379 82.04324 C 1.052379 80.16824 0.00029543 77.621365 0.00029543 74.970323 L 0.00029543 10.027612 C 0.00029543 7.37657 1.052379 4.834903 2.927379 2.954695 C 4.802379 1.079695 7.349254 0.0276112 10.000296 0.0276112 L 75.000299 0.0276112 C 77.651341 0.0276112 80.198216 1.079695 82.073216 2.954695 C 83.948216 4.834903 85.0003 7.37657 85.0003 10.027612 Z M 85.0003 10.027612 " stroke="#000000" stroke-width="4" stroke-opacity="1" stroke-miterlimit="4"/></g></g><g clip-path="url(#64e12b7740)"><g clip-path="url(#c64b54ab60)"><g transform="matrix(1, 0, 0, 1, 554, 487)"><g clip-path="url(#219a5f2bd9)"><g clip-path="url(#e68382315f)"><g clip-path="url(#96862e3c72)"><path fill="#ffffff" d="M 64.394531 0.121094 L 64.394531 63.828125 L 0.6875 63.828125 L 0.6875 0.121094 Z M 64.394531 0.121094 " fill-opacity="1" fill-rule="nonzero"/></g></g></g></g></g></g><g clip-path="url(#1e5936cd92)"><g clip-path="url(#237f144cb9)"><path stroke-linecap="butt" transform="matrix(0, 0.75, -0.75, 0, 618.395708, 487.120868)" fill="none" stroke-linejoin="miter" d="M 85.000305 10.027612 L 85.000305 74.970323 C 85.000305 77.621365 83.948222 80.16824 82.073222 82.04324 C 80.198222 83.91824 77.651347 84.970324 75.000305 84.970324 L 10.000302 84.970324 C 7.34926 84.970324 4.802385 83.91824 2.927385 82.04324 C 1.052385 80.16824 0.000301136 77.621365 0.000301136 74.970323 L 0.000301136 10.027612 C 0.000301136 7.37657 1.052385 4.834903 2.927385 2.954695 C 4.802385 1.079695 7.34926 0.0276112 10.000302 0.0276112 L 75.000305 0.0276112 C 77.651347 0.0276112 80.198222 1.079695 82.073222 2.954695 C 83.948222 4.834903 85.000305 7.37657 85.000305 10.027612 Z M 85.000305 10.027612 " stroke="#000000" stroke-width="4" stroke-opacity="1" stroke-miterlimit="4"/></g></g><g clip-path="url(#186703d53f)"><g clip-path="url(#d15b5f8b5b)"><g transform="matrix(1, 0, 0, 1, 554, 554)"><g clip-path="url(#9679ea724a)"><g clip-path="url(#b07e262617)"><g clip-path="url(#ed59e4a709)"><path fill="#ffffff" d="M 64.394531 0.621094 L 64.394531 64.328125 L 0.6875 64.328125 L 0.6875 0.621094 Z M 64.394531 0.621094 " fill-opacity="1" fill-rule="nonzero"/></g></g></g></g></g></g><g clip-path="url(#60824cdf5d)"><g clip-path="url(#fddff2cd7d)"><path stroke-linecap="butt" transform="matrix(0, 0.75, -0.75, 0, 618.395708, 554.620841)" fill="none" stroke-linejoin="miter" d="M 85.000342 10.027612 L 85.000342 74.970323 C 85.000342 77.621365 83.948258 80.16824 82.073258 82.04324 C 80.198258 83.91824 77.651383 84.970324 75.000341 84.970324 L 10.000338 84.970324 C 7.349296 84.970324 4.802421 83.91824 2.927421 82.04324 C 1.052421 80.16824 0.00033759 77.621365 0.00033759 74.970323 L 0.00033759 10.027612 C 0.00033759 7.37657 1.052421 4.834903 2.927421 2.954695 C 4.802421 1.079695 7.349296 0.0276112 10.000338 0.0276112 L 75.000341 0.0276112 C 77.651383 0.0276112 80.198258 1.079695 82.073258 2.954695 C 83.948258 4.834903 85.000342 7.37657 85.000342 10.027612 Z M 85.000342 10.027612 " stroke="#000000" stroke-width="4" stroke-opacity="1" stroke-miterlimit="4"/></g></g><g clip-path="url(#2959f9fb0d)"><g clip-path="url(#4a993ded5e)"><g transform="matrix(1, 0, 0, 1, 352, 154)"><g clip-path="url(#e6f4846045)"><g clip-path="url(#c70097c453)"><g clip-path="url(#8619033e57)"><path fill="#ffffff" d="M 0.117188 -4.375 L 63.867188 -4.375 L 63.867188 59.375 L 0.117188 59.375 Z M 0.117188 -4.375 " fill-opacity="1" fill-rule="nonzero"/></g></g></g></g></g></g><g clip-path="url(#d1fe513a9c)"><g clip-path="url(#d8de844eb3)"><path stroke-linecap="butt" transform="matrix(0.75, 0, 0, 0.75, 352.116694, 149.625013)" fill="none" stroke-linejoin="miter" d="M 75.000662 84.999987 L 10.000659 84.999987 C 4.474617 84.999987 0.000658563 80.520821 0.000658563 74.999987 L 0.000658563 9.999984 C 0.000658563 8.3229 1.011075 6.812484 2.55795 6.171859 C 4.104825 5.531233 5.886076 5.8854 7.073576 7.0729 L 77.927746 77.92707 C 79.115246 79.11457 79.469412 80.895821 78.828787 82.442696 C 78.188162 83.989571 76.677746 84.999987 75.000662 84.999987 Z M 75.000662 84.999987 " stroke="#000000" stroke-width="4" stroke-opacity="1" stroke-miterlimit="4"/></g></g><g clip-path="url(#7bcb49b85d)"><g clip-path="url(#836455dfe4)"><g transform="matrix(1, 0, 0, 1, 554, 289)"><g clip-path="url(#85a42faae3)"><g clip-path="url(#1cc938d5f2)"><g clip-path="url(#d5ab5e54a7)"><path fill="#ffffff" d="M 0.648438 -4.375 L 64.398438 -4.375 L 64.398438 59.375 L 0.648438 59.375 Z M 0.648438 -4.375 " fill-opacity="1" fill-rule="nonzero"/></g></g></g></g></g></g><g clip-path="url(#6c74c3e4c7)"><g clip-path="url(#1be447f89d)"><path stroke-linecap="butt" transform="matrix(0.75, 0, 0, 0.75, 554.649816, 284.625006)" fill="none" stroke-linejoin="miter" d="M 74.998166 84.999996 L 9.998163 84.999996 C 4.477329 84.999996 -0.00183741 80.520829 -0.00183741 74.999996 L -0.00183741 9.999993 C -0.00183741 8.322909 1.008579 6.812492 2.555454 6.171867 C 4.102329 5.531242 5.888788 5.885409 7.07108 7.072909 L 77.930458 77.927079 C 79.11275 79.114579 79.466917 80.895829 78.826291 82.442705 C 78.185666 83.98958 76.67525 84.999996 74.998166 84.999996 Z M 74.998166 84.999996 " stroke="#000000" stroke-width="4" stroke-opacity="1" stroke-miterlimit="4"/></g></g><g clip-path="url(#991914ba0d)"><g clip-path="url(#d64c0f718c)"><g transform="matrix(1, 0, 0, 1, 554, 424)"><g clip-path="url(#19390f191c)"><g clip-path="url(#0cb34b0792)"><g clip-path="url(#4f9475a121)"><path fill="#ffffff" d="M 0.648438 -4.375 L 64.398438 -4.375 L 64.398438 59.375 L 0.648438 59.375 Z M 0.648438 -4.375 " fill-opacity="1" fill-rule="nonzero"/></g></g></g></g></g></g><g clip-path="url(#8523190a70)"><g clip-path="url(#1b24102fff)"><path stroke-linecap="butt" transform="matrix(0.75, 0, 0, 0.75, 554.649816, 419.624999)" fill="none" stroke-linejoin="miter" d="M 74.998166 85.000005 L 9.998163 85.000005 C 4.477329 85.000005 -0.00183741 80.520838 -0.00183741 75.000005 L -0.00183741 10.000002 C -0.00183741 8.322918 1.008579 6.812501 2.555454 6.171876 C 4.102329 5.531251 5.888788 5.885418 7.07108 7.072918 L 77.930458 77.927088 C 79.11275 79.114588 79.466917 80.895838 78.826291 82.442713 C 78.185666 83.989589 76.67525 85.000005 74.998166 85.000005 Z M 74.998166 85.000005 " stroke="#000000" stroke-width="4" stroke-opacity="1" stroke-miterlimit="4"/></g></g></svg>